<?xml version="1.0" encoding="UTF-8"?>
<svg xmlns="http://www.w3.org/2000/svg" width="195" height="39" viewBox="0 0 195 39" fill="none">
  <path fill-rule="evenodd" clip-rule="evenodd" d="M38.3574 37.6486C38.0513 16.8495 26.5611 1.16496 0.545388 0.729088C0.253076 0.723899 0.0126566 0.960861 0.0126566 1.25317V4.78167C0.0126566 5.44759 -0.129175 5.98032 0.536742 6.00627C20.1528 6.64624 31.9577 16.4274 32.1203 37.6538C32.1427 38.3214 32.6772 38.1813 33.3449 38.1813H37.8316C38.1239 38.1831 38.3626 37.9409 38.3574 37.6486Z" fill="#170823"></path>
  <path fill-rule="evenodd" clip-rule="evenodd" d="M21.5105 21.5845C19.9556 21.5845 18.6877 22.8575 18.6877 24.4194C18.6877 25.9795 19.9573 27.2543 21.5105 27.2543C23.0655 27.2543 24.3351 25.9795 24.3351 24.4194C24.3351 22.8592 23.0672 21.5845 21.5105 21.5845Z" fill="#6F1AB6"></path>
  <path fill-rule="evenodd" clip-rule="evenodd" d="M13.5834 33.1521C12.2723 33.1521 11.2017 34.2262 11.2017 35.5425C11.2017 36.8588 12.2723 37.9329 13.5834 37.9329C14.8945 37.9329 15.9651 36.8588 15.9651 35.5425C15.9651 34.2262 14.8962 33.1521 13.5834 33.1521Z" fill="#6F1AB6"></path>
  <path fill-rule="evenodd" clip-rule="evenodd" d="M7.79954 12.7383C6.67526 12.7383 5.75854 13.6585 5.75854 14.7879C5.75854 15.9157 6.67526 16.8376 7.79954 16.8376C8.92381 16.8376 9.84053 15.9157 9.84053 14.7879C9.84226 13.6585 8.92381 12.7383 7.79954 12.7383Z" fill="#6F1AB6"></path>
  <path fill-rule="evenodd" clip-rule="evenodd" d="M2.35642 30.4297C1.23215 30.4297 0.31543 31.3499 0.31543 32.4793C0.31543 33.6071 1.23215 34.529 2.35642 34.529C3.4807 34.529 4.39742 33.6071 4.39742 32.4793C4.39915 31.3516 3.4807 30.4297 2.35642 30.4297Z" fill="#6F1AB6"></path>
  <path d="M2.35645 32.479L7.8014 14.7881L13.5836 35.5422L21.5487 24.5589" stroke="#6F1AB6" stroke-width="0.432414" stroke-miterlimit="10"></path>
  <path d="M192.272 30.5814C191.544 30.5814 190.913 30.3133 190.378 29.7789C189.844 29.2444 189.578 28.6131 189.578 27.8849C189.578 27.1567 189.844 26.5202 190.378 25.9754C190.913 25.4288 191.544 25.1572 192.272 25.1572C193.023 25.1572 193.665 25.4305 194.199 25.9754C194.734 26.5219 195 27.1584 195 27.8849C195 28.6131 194.732 29.2444 194.199 29.7789C193.667 30.3133 193.023 30.5814 192.272 30.5814Z" fill="#170823"></path>
  <path d="M46.1426 9.0954V27.5142H42.8869V9.0954H46.1426ZM55.606 27.784C54.221 27.784 53.0249 27.4962 52.0176 26.9206C51.0163 26.339 50.2459 25.5176 49.7063 24.4564C49.1666 23.3891 48.8968 22.133 48.8968 20.6881C48.8968 19.2671 49.1666 18.02 49.7063 16.9468C50.2519 15.8675 51.0133 15.0281 51.9906 14.4286C52.9679 13.823 54.1161 13.5202 55.4351 13.5202C56.2865 13.5202 57.0899 13.6581 57.8454 13.9339C58.6069 14.2037 59.2784 14.6234 59.86 15.193C60.4475 15.7626 60.9092 16.4881 61.245 17.3695C61.5807 18.2448 61.7486 19.2881 61.7486 20.4992V21.4975H50.4257V19.3031H58.6278C58.6218 18.6795 58.4869 18.1249 58.2231 17.6393C57.9593 17.1476 57.5906 16.7609 57.1169 16.4791C56.6493 16.1973 56.1037 16.0564 55.4801 16.0564C54.8146 16.0564 54.23 16.2183 53.7264 16.542C53.2227 16.8598 52.83 17.2795 52.5482 17.8011C52.2724 18.3168 52.1315 18.8834 52.1255 19.5009V21.4165C52.1255 22.22 52.2724 22.9095 52.5662 23.4851C52.86 24.0546 53.2707 24.4923 53.7983 24.7981C54.3259 25.0979 54.9435 25.2478 55.651 25.2478C56.1246 25.2478 56.5533 25.1818 56.9371 25.0499C57.3208 24.912 57.6535 24.7112 57.9353 24.4474C58.2171 24.1836 58.43 23.8568 58.5739 23.4671L61.6137 23.8088C61.4218 24.6122 61.0561 25.3137 60.5165 25.9133C59.9829 26.5069 59.2994 26.9686 58.466 27.2983C57.6326 27.6221 56.6792 27.784 55.606 27.784ZM71.4009 13.7001V16.2183H63.4596V13.7001H71.4009ZM65.4202 10.3905H68.6759V23.3591C68.6759 23.7968 68.7418 24.1326 68.8737 24.3664C69.0116 24.5943 69.1915 24.7501 69.4133 24.8341C69.6352 24.918 69.881 24.96 70.1508 24.96C70.3547 24.96 70.5405 24.945 70.7084 24.915C70.8823 24.8851 71.0142 24.8581 71.1041 24.8341L71.6527 27.3793C71.4789 27.4392 71.23 27.5052 70.9063 27.5771C70.5885 27.6491 70.1988 27.691 69.7371 27.703C68.9217 27.727 68.1872 27.6041 67.5337 27.3343C66.8802 27.0585 66.3615 26.6328 65.9778 26.0572C65.6001 25.4816 65.4142 24.7621 65.4202 23.8988V10.3905ZM84.844 17.3515L81.8761 17.6752C81.7922 17.3754 81.6453 17.0937 81.4354 16.8298C81.2316 16.566 80.9558 16.3532 80.608 16.1913C80.2603 16.0294 79.8346 15.9485 79.331 15.9485C78.6534 15.9485 78.0839 16.0954 77.6222 16.3892C77.1665 16.6829 76.9417 17.0637 76.9477 17.5313C76.9417 17.933 77.0886 18.2598 77.3884 18.5116C77.6941 18.7635 78.1978 18.9703 78.8993 19.1322L81.2556 19.6358C82.5626 19.9176 83.5339 20.3643 84.1695 20.9759C84.811 21.5874 85.1348 22.3878 85.1408 23.3771C85.1348 24.2465 84.88 25.014 84.3763 25.6795C83.8787 26.339 83.1862 26.8546 82.2988 27.2264C81.4115 27.5981 80.3922 27.784 79.241 27.784C77.5502 27.784 76.1892 27.4302 75.158 26.7227C74.1267 26.0092 73.5121 25.017 73.3143 23.7459L76.489 23.4401C76.6329 24.0636 76.9387 24.5343 77.4063 24.8521C77.874 25.1698 78.4826 25.3287 79.232 25.3287C80.0055 25.3287 80.626 25.1698 81.0937 24.8521C81.5673 24.5343 81.8042 24.1416 81.8042 23.6739C81.8042 23.2782 81.6513 22.9514 81.3455 22.6936C81.0457 22.4358 80.5781 22.238 79.9425 22.1001L77.5862 21.6054C76.2612 21.3296 75.2809 20.8649 74.6453 20.2114C74.0098 19.5519 73.695 18.7185 73.701 17.7112C73.695 16.8598 73.9258 16.1223 74.3935 15.4988C74.8672 14.8693 75.5237 14.3836 76.3631 14.0418C77.2085 13.6941 78.1828 13.5202 79.286 13.5202C80.9048 13.5202 82.1789 13.865 83.1082 14.5545C84.0436 15.244 84.6222 16.1763 84.844 17.3515Z" fill="#170823"></path>
  <path d="M87.8254 27.5142V13.7001H90.9821V16.0024H91.126C91.3778 15.205 91.8095 14.5905 92.421 14.1588C93.0386 13.7211 93.7431 13.5022 94.5345 13.5022C94.7144 13.5022 94.9153 13.5112 95.1371 13.5292C95.3649 13.5412 95.5538 13.5622 95.7037 13.5922V16.587C95.5658 16.5391 95.3469 16.4971 95.0472 16.4611C94.7534 16.4191 94.4686 16.3982 94.1928 16.3982C93.5992 16.3982 93.0656 16.5271 92.5919 16.7849C92.1243 17.0367 91.7555 17.3874 91.4857 17.8371C91.2159 18.2868 91.081 18.8054 91.081 19.393V27.5142H87.8254ZM103.413 27.784C102.028 27.784 100.832 27.4962 99.825 26.9206C98.8237 26.339 98.0532 25.5176 97.5136 24.4564C96.974 23.3891 96.7042 22.133 96.7042 20.6881C96.7042 19.2671 96.974 18.02 97.5136 16.9468C98.0592 15.8675 98.8207 15.0281 99.798 14.4286C100.775 13.823 101.923 13.5202 103.243 13.5202C104.094 13.5202 104.897 13.6581 105.653 13.9339C106.414 14.2037 107.086 14.6234 107.667 15.193C108.255 15.7626 108.717 16.4881 109.052 17.3695C109.388 18.2448 109.556 19.2881 109.556 20.4992V21.4975H98.2331V19.3031H106.435C106.429 18.6795 106.294 18.1249 106.031 17.6393C105.767 17.1476 105.398 16.7609 104.924 16.4791C104.457 16.1973 103.911 16.0564 103.287 16.0564C102.622 16.0564 102.037 16.2183 101.534 16.542C101.03 16.8598 100.637 17.2795 100.356 17.8011C100.08 18.3168 99.9389 18.8834 99.9329 19.5009V21.4165C99.9329 22.22 100.08 22.9095 100.374 23.4851C100.667 24.0546 101.078 24.4923 101.606 24.7981C102.133 25.0979 102.751 25.2478 103.458 25.2478C103.932 25.2478 104.361 25.1818 104.744 25.0499C105.128 24.912 105.461 24.7112 105.743 24.4474C106.025 24.1836 106.237 23.8568 106.381 23.4671L109.421 23.8088C109.229 24.6122 108.863 25.3137 108.324 25.9133C107.79 26.5069 107.107 26.9686 106.273 27.2983C105.44 27.6221 104.487 27.784 103.413 27.784ZM112.31 27.5142V13.7001H115.422V16.0474H115.584C115.872 15.256 116.348 14.6384 117.014 14.1947C117.679 13.7451 118.474 13.5202 119.397 13.5202C120.332 13.5202 121.121 13.7481 121.762 14.2037C122.41 14.6534 122.866 15.268 123.129 16.0474H123.273C123.579 15.28 124.095 14.6684 124.82 14.2127C125.552 13.7511 126.418 13.5202 127.419 13.5202C128.69 13.5202 129.728 13.9219 130.531 14.7254C131.335 15.5288 131.736 16.7009 131.736 18.2418V27.5142H128.472V18.7455C128.472 17.8881 128.244 17.2615 127.788 16.8658C127.332 16.4641 126.775 16.2632 126.115 16.2632C125.33 16.2632 124.715 16.5091 124.272 17.0007C123.834 17.4864 123.615 18.1189 123.615 18.8984V27.5142H120.422V18.6106C120.422 17.8971 120.207 17.3275 119.775 16.9018C119.349 16.4761 118.792 16.2632 118.102 16.2632C117.634 16.2632 117.209 16.3832 116.825 16.623C116.441 16.8568 116.135 17.1896 115.908 17.6213C115.68 18.047 115.566 18.5446 115.566 19.1142V27.5142H112.31ZM141.065 27.784C139.716 27.784 138.547 27.4872 137.557 26.8936C136.568 26.3 135.801 25.4696 135.255 24.4024C134.715 23.3352 134.446 22.0881 134.446 20.6611C134.446 19.2341 134.715 17.984 135.255 16.9108C135.801 15.8376 136.568 15.0042 137.557 14.4106C138.547 13.817 139.716 13.5202 141.065 13.5202C142.414 13.5202 143.583 13.817 144.572 14.4106C145.562 15.0042 146.326 15.8376 146.866 16.9108C147.411 17.984 147.684 19.2341 147.684 20.6611C147.684 22.0881 147.411 23.3352 146.866 24.4024C146.326 25.4696 145.562 26.3 144.572 26.8936C143.583 27.4872 142.414 27.784 141.065 27.784ZM141.083 25.1758C141.814 25.1758 142.426 24.975 142.917 24.5733C143.409 24.1656 143.775 23.62 144.015 22.9365C144.261 22.2529 144.383 21.4915 144.383 20.6521C144.383 19.8067 144.261 19.0423 144.015 18.3587C143.775 17.6692 143.409 17.1206 142.917 16.7129C142.426 16.3052 141.814 16.1014 141.083 16.1014C140.333 16.1014 139.71 16.3052 139.212 16.7129C138.721 17.1206 138.352 17.6692 138.106 18.3587C137.866 19.0423 137.746 19.8067 137.746 20.6521C137.746 21.4915 137.866 22.2529 138.106 22.9365C138.352 23.62 138.721 24.1656 139.212 24.5733C139.71 24.975 140.333 25.1758 141.083 25.1758ZM157.345 13.7001V16.2183H149.404V13.7001H157.345ZM151.365 10.3905H154.62V23.3591C154.62 23.7968 154.686 24.1326 154.818 24.3664C154.956 24.5943 155.136 24.7501 155.358 24.8341C155.58 24.918 155.825 24.96 156.095 24.96C156.299 24.96 156.485 24.945 156.653 24.915C156.827 24.8851 156.959 24.8581 157.049 24.8341L157.597 27.3793C157.423 27.4392 157.174 27.5052 156.851 27.5771C156.533 27.6491 156.143 27.691 155.682 27.703C154.866 27.727 154.132 27.6041 153.478 27.3343C152.825 27.0585 152.306 26.6328 151.922 26.0572C151.545 25.4816 151.359 24.7621 151.365 23.8988V10.3905ZM160.068 27.5142V13.7001H163.324V27.5142H160.068ZM161.705 11.7395C161.189 11.7395 160.746 11.5686 160.374 11.2269C160.002 10.8791 159.816 10.4624 159.816 9.97677C159.816 9.48512 160.002 9.06842 160.374 8.72667C160.746 8.37892 161.189 8.20504 161.705 8.20504C162.227 8.20504 162.67 8.37892 163.036 8.72667C163.408 9.06842 163.594 9.48512 163.594 9.97677C163.594 10.4624 163.408 10.8791 163.036 11.2269C162.67 11.5686 162.227 11.7395 161.705 11.7395ZM173.669 13.7001V16.2183H165.503V13.7001H173.669ZM167.544 27.5142V12.396C167.544 11.4667 167.736 10.6933 168.12 10.0757C168.509 9.45814 169.031 8.99647 169.685 8.69069C170.338 8.38491 171.064 8.23202 171.861 8.23202C172.425 8.23202 172.925 8.27699 173.363 8.36693C173.801 8.45686 174.124 8.5378 174.334 8.60975L173.687 11.1279C173.549 11.086 173.375 11.044 173.165 11.002C172.955 10.9541 172.721 10.9301 172.464 10.9301C171.858 10.9301 171.429 11.077 171.177 11.3708C170.932 11.6586 170.809 12.0723 170.809 12.6119V27.5142H167.544ZM178.242 32.6944C177.798 32.6944 177.387 32.6585 177.01 32.5865C176.638 32.5206 176.341 32.4426 176.119 32.3527L176.875 29.8165C177.348 29.9544 177.771 30.0204 178.143 30.0144C178.515 30.0084 178.841 29.8915 179.123 29.6636C179.411 29.4418 179.654 29.07 179.852 28.5484L180.13 27.802L175.121 13.7001H178.575L181.758 24.1326H181.902L185.095 13.7001H188.557L183.026 29.187C182.769 29.9184 182.427 30.545 182.001 31.0666C181.575 31.5942 181.054 31.9959 180.436 32.2717C179.825 32.5535 179.093 32.6944 178.242 32.6944Z" fill="#912CC6"></path>
</svg>
