<?xml version="1.0" encoding="UTF-8"?>
<svg xmlns="http://www.w3.org/2000/svg" width="16" height="15" viewBox="0 0 16 15" fill="none">
  <path d="M11.8222 5.54736L6.84443 10.8576L4.35555 8.20247" stroke="#912CC6" stroke-width="0.888889"></path>
  <path d="M3.64444 0.347412V3.76075M12.3556 0.347412V3.76075M0.888885 14.0914V2.31363C0.888885 2.16963 1.00711 2.05408 1.15555 2.05408H14.8444C14.9929 2.05408 15.1111 2.16963 15.1111 2.31363V14.0914C15.1108 14.126 15.1036 14.1602 15.09 14.192C15.0764 14.2238 15.0566 14.2526 15.0318 14.2767C15.007 14.3008 14.9777 14.3198 14.9455 14.3325C14.9134 14.3453 14.879 14.3516 14.8444 14.351H1.15555C1.00711 14.351 0.888885 14.2354 0.888885 14.0914Z" stroke="#912CC6" stroke-width="0.888889"></path>
</svg>
