<?xml version="1.0" encoding="UTF-8"?>
<svg xmlns="http://www.w3.org/2000/svg" width="154" height="77" viewBox="0 0 154 77" fill="none">
  <g clip-path="url(#clip0_3393_4506)">
    <path d="M40.3422 14.3051H55.8841V17.2217H49.773V33.6174H46.4126V17.2217H40.3286V14.3051H40.3422ZM55.2201 19.634H58.0927V22.3326H58.1469C58.2418 21.951 58.4179 21.583 58.6754 21.2286C58.9328 20.8743 59.2445 20.5335 59.6103 20.2473C59.9762 19.9475 60.3827 19.7158 60.8299 19.525C61.277 19.3478 61.7377 19.2524 62.1984 19.2524C62.5507 19.2524 62.8082 19.266 62.9437 19.2797C63.0792 19.2933 63.2147 19.3206 63.3637 19.3342V22.3053C63.1469 22.2644 62.9301 22.2372 62.6998 22.2099C62.4694 22.1827 62.2526 22.169 62.0358 22.169C61.5209 22.169 61.0331 22.2781 60.5724 22.4825C60.1117 22.6869 59.7188 23.0004 59.38 23.3956C59.0412 23.8045 58.7702 24.2952 58.567 24.8948C58.3637 25.4945 58.2689 26.176 58.2689 26.9528V33.6038H55.2066V19.634H55.2201ZM77.4422 33.6174H74.4341V31.6685H74.3799C74.0005 32.3772 73.4449 32.936 72.6997 33.3585C71.9544 33.781 71.1956 33.9991 70.4233 33.9991C68.594 33.9991 67.2661 33.5493 66.4531 32.6362C65.6401 31.723 65.2336 30.3465 65.2336 28.5065V19.634H68.2959V28.2067C68.2959 29.4333 68.5263 30.3056 69.0005 30.8099C69.4612 31.3141 70.1252 31.5731 70.9653 31.5731C71.6157 31.5731 72.1441 31.4777 72.5777 31.2732C73.0113 31.0688 73.3636 30.8099 73.6211 30.4691C73.8921 30.142 74.0818 29.7332 74.2037 29.2698C74.3257 28.8064 74.3799 28.3021 74.3799 27.7569V19.6476H77.4422V33.6174ZM82.659 29.1335C82.7538 30.033 83.0926 30.6599 83.6752 31.0279C84.2714 31.3823 84.976 31.5731 85.8026 31.5731C86.0871 31.5731 86.4123 31.5458 86.7782 31.5049C87.144 31.4641 87.4963 31.3687 87.808 31.246C88.1332 31.1233 88.3906 30.9325 88.6074 30.6872C88.8107 30.4419 88.9055 30.1284 88.892 29.7332C88.8784 29.3379 88.7294 29.0108 88.4584 28.7655C88.1874 28.5065 87.8486 28.3157 87.4286 28.1522C87.0085 28.0023 86.5343 27.866 85.9923 27.7569C85.4503 27.6479 84.9083 27.5253 84.3527 27.4026C83.7836 27.2799 83.2281 27.1164 82.6996 26.9392C82.1712 26.762 81.6969 26.5167 81.2769 26.2032C80.8568 25.9034 80.5181 25.5082 80.2742 25.0311C80.0167 24.5541 79.8948 23.9681 79.8948 23.2594C79.8948 22.4961 80.0845 21.8692 80.4503 21.3513C80.8162 20.8334 81.2904 20.4245 81.846 20.111C82.4151 19.7976 83.0384 19.5795 83.7294 19.4432C84.4205 19.3206 85.0844 19.2524 85.7077 19.2524C86.4259 19.2524 87.1169 19.3342 87.7673 19.4841C88.4177 19.634 89.0139 19.8793 89.5424 20.2337C90.0708 20.5744 90.5044 21.0242 90.8567 21.5693C91.209 22.1145 91.4258 22.7823 91.5207 23.5592H88.3229C88.1738 22.8232 87.8486 22.3189 87.3202 22.0736C86.7917 21.8147 86.182 21.692 85.5045 21.692C85.2877 21.692 85.0302 21.7056 84.7321 21.7465C84.434 21.7874 84.163 21.8556 83.892 21.951C83.6346 22.0464 83.4178 22.1963 83.2281 22.3871C83.0519 22.5779 82.9571 22.8232 82.9571 23.1367C82.9571 23.5183 83.0926 23.8181 83.35 24.0498C83.6075 24.2815 83.9462 24.4723 84.3663 24.6359C84.7863 24.7858 85.2606 24.9221 85.8026 25.0311C86.3446 25.1402 86.9001 25.2628 87.4692 25.3855C88.0248 25.5082 88.5668 25.6717 89.1088 25.8489C89.6508 26.0261 90.125 26.2714 90.5451 26.5848C90.9651 26.8983 91.3039 27.2799 91.5613 27.7433C91.8188 28.2067 91.9543 28.7928 91.9543 29.4742C91.9543 30.3056 91.7646 31.0007 91.3852 31.5867C91.0058 32.1591 90.518 32.6362 89.9218 32.9905C89.3256 33.3449 88.6481 33.6174 87.9164 33.781C87.1847 33.9445 86.453 34.0263 85.7348 34.0263C84.8541 34.0263 84.0411 33.9309 83.2958 33.7265C82.5506 33.522 81.9002 33.2222 81.3582 32.827C80.8162 32.4181 80.3826 31.9138 80.0709 31.3141C79.7593 30.7145 79.5967 29.9921 79.5696 29.1607H82.659V29.1335ZM92.7673 19.634H95.0844V15.4363H98.1467V19.634H100.911V21.9373H98.1467V29.4061C98.1467 29.7332 98.1602 30.0057 98.1873 30.2511C98.2144 30.4828 98.2822 30.6872 98.377 30.8507C98.4719 31.0143 98.6209 31.137 98.8242 31.2187C99.0274 31.3005 99.2849 31.3414 99.6372 31.3414C99.854 31.3414 100.071 31.3414 100.288 31.3278C100.504 31.3141 100.721 31.2869 100.938 31.2324V33.6174C100.599 33.6583 100.26 33.6856 99.9488 33.7265C99.6236 33.7674 99.2984 33.781 98.9597 33.781C98.1467 33.781 97.4963 33.6992 97.0085 33.5493C96.5207 33.3994 96.1277 33.1677 95.8567 32.8678C95.5722 32.568 95.396 32.2 95.2876 31.7503C95.1928 31.3005 95.125 30.7826 95.1115 30.2102V21.9646H92.7944V19.634H92.7673ZM103.079 19.634H105.979V21.5285H106.033C106.466 20.7107 107.063 20.1383 107.835 19.7839C108.607 19.4296 109.434 19.2524 110.342 19.2524C111.439 19.2524 112.388 19.4432 113.201 19.8385C114.014 20.2201 114.691 20.7516 115.233 21.4331C115.775 22.1145 116.168 22.905 116.439 23.8045C116.71 24.704 116.846 25.6717 116.846 26.6939C116.846 27.6343 116.724 28.5474 116.48 29.4197C116.236 30.3056 115.87 31.0824 115.382 31.7639C114.895 32.4453 114.271 32.9769 113.512 33.3858C112.754 33.7946 111.873 33.9991 110.843 33.9991C110.396 33.9991 109.949 33.9582 109.502 33.8764C109.054 33.7946 108.621 33.6583 108.214 33.4812C107.808 33.304 107.415 33.0723 107.076 32.7861C106.724 32.4999 106.439 32.1728 106.195 31.8048H106.141V38.7829H103.079V19.634ZM113.783 26.6394C113.783 26.0124 113.702 25.3991 113.54 24.7994C113.377 24.1998 113.133 23.6819 112.808 23.2185C112.483 22.7551 112.076 22.3871 111.602 22.1145C111.114 21.8419 110.559 21.692 109.935 21.692C108.648 21.692 107.672 22.1418 107.022 23.0413C106.372 23.9408 106.046 25.1402 106.046 26.6394C106.046 27.3481 106.128 28.0023 106.304 28.602C106.48 29.2016 106.724 29.7195 107.076 30.1557C107.415 30.5918 107.821 30.9325 108.296 31.1778C108.77 31.4368 109.325 31.5595 109.949 31.5595C110.653 31.5595 111.236 31.4095 111.724 31.1233C112.212 30.8371 112.605 30.4555 112.916 30.0057C113.228 29.5424 113.458 29.0245 113.594 28.4384C113.716 27.8524 113.783 27.2527 113.783 26.6394ZM119.19 14.3051H122.252V17.2217H119.19V14.3051ZM119.19 19.634H122.252V33.6174H119.19V19.634ZM124.989 14.3051H128.052V33.6174H124.989V14.3051ZM137.442 33.9991C136.331 33.9991 135.342 33.8083 134.474 33.4403C133.607 33.0723 132.875 32.5544 132.266 31.9138C131.669 31.2596 131.209 30.4828 130.897 29.5832C130.585 28.6837 130.423 27.6888 130.423 26.6121C130.423 25.549 130.585 24.5677 130.897 23.6682C131.209 22.7687 131.669 21.9918 132.266 21.3377C132.862 20.6835 133.607 20.1792 134.474 19.8112C135.342 19.4432 136.331 19.2524 137.442 19.2524C138.553 19.2524 139.542 19.4432 140.409 19.8112C141.276 20.1792 142.008 20.6971 142.618 21.3377C143.214 21.9918 143.675 22.7687 143.986 23.6682C144.298 24.5677 144.461 25.549 144.461 26.6121C144.461 27.6888 144.298 28.6837 143.986 29.5832C143.675 30.4828 143.214 31.2596 142.618 31.9138C142.022 32.568 141.276 33.0723 140.409 33.4403C139.542 33.8083 138.553 33.9991 137.442 33.9991ZM137.442 31.5595C138.119 31.5595 138.715 31.4095 139.217 31.1233C139.718 30.8371 140.125 30.4555 140.45 29.9921C140.775 29.5287 141.005 28.9972 141.168 28.4111C141.317 27.8251 141.398 27.2254 141.398 26.6121C141.398 26.0124 141.317 25.4264 141.168 24.8267C141.019 24.227 140.775 23.7091 140.45 23.2457C140.125 22.7823 139.718 22.4144 139.217 22.1281C138.715 21.8419 138.119 21.692 137.442 21.692C136.764 21.692 136.168 21.8419 135.667 22.1281C135.165 22.4144 134.759 22.796 134.434 23.2457C134.108 23.7091 133.878 24.227 133.716 24.8267C133.566 25.4264 133.485 26.0124 133.485 26.6121C133.485 27.2254 133.566 27.8251 133.716 28.4111C133.865 28.9972 134.108 29.5287 134.434 29.9921C134.759 30.4555 135.165 30.8371 135.667 31.1233C136.168 31.4232 136.764 31.5595 137.442 31.5595ZM145.355 19.634H147.672V15.4363H150.734V19.634H153.499V21.9373H150.734V29.4061C150.734 29.7332 150.748 30.0057 150.775 30.2511C150.802 30.4828 150.87 30.6872 150.965 30.8507C151.06 31.0143 151.209 31.137 151.412 31.2187C151.615 31.3005 151.873 31.3414 152.225 31.3414C152.442 31.3414 152.658 31.3414 152.875 31.3278C153.092 31.3141 153.309 31.2869 153.526 31.2324V33.6174C153.187 33.6583 152.848 33.6856 152.537 33.7265C152.211 33.7674 151.886 33.781 151.547 33.781C150.734 33.781 150.084 33.6992 149.596 33.5493C149.108 33.3994 148.715 33.1677 148.444 32.8678C148.16 32.568 147.984 32.2 147.875 31.7503C147.78 31.3005 147.713 30.7826 147.699 30.2102V21.9646H145.382V19.634H145.355Z" fill="black"></path>
    <path d="M36.7651 14.3047H22.7273L18.3913 0.866455L14.0417 14.3047L0.00384521 14.2911L11.3723 22.6048L7.02277 36.0295L18.3913 27.7294L29.7462 36.0295L25.4102 22.6048L36.7651 14.3047Z" fill="#00B67A"></path>
    <path d="M26.3857 25.644L25.4101 22.6047L18.3912 27.7293L26.3857 25.644Z" fill="#005128"></path>
    <path fill-rule="evenodd" clip-rule="evenodd" d="M0.00378418 76.1108H28.3385V47.776H0.00378418V76.1108Z" fill="#00B67A"></path>
    <path fill-rule="evenodd" clip-rule="evenodd" d="M24.1335 59.969L16.5452 59.9679L14.2011 52.7513L11.857 59.9669L4.26837 59.9658L10.4078 64.4275L8.06306 71.6445L14.2018 67.1849L17.9947 64.4293L24.1335 59.969ZM14.2018 67.1849L18.526 66.0648L20.3388 71.6445L14.2018 67.1849Z" fill="white"></path>
    <path fill-rule="evenodd" clip-rule="evenodd" d="M31.2769 76.1108H59.6116V47.776H31.2769V76.1108Z" fill="#00B67A"></path>
    <path fill-rule="evenodd" clip-rule="evenodd" d="M55.4064 59.969L47.8181 59.9679L45.4737 52.7513L43.1296 59.9669L35.5413 59.9658L41.6808 64.4275L39.336 71.6445L45.4748 67.1849L49.2677 64.4293L55.4064 59.969ZM45.4748 67.1849L49.799 66.0648L51.6114 71.6445L45.4748 67.1849Z" fill="white"></path>
    <path fill-rule="evenodd" clip-rule="evenodd" d="M62.5499 76.1108H90.885V47.776H62.5499V76.1108Z" fill="#00B67A"></path>
    <path fill-rule="evenodd" clip-rule="evenodd" d="M86.6795 59.969L79.0911 59.9679L76.7471 52.7513L74.403 59.9669L66.8144 59.9658L72.9538 64.4275L70.6094 71.6445L76.7478 67.1849L80.5407 64.4293L86.6795 59.969ZM76.7478 67.1849L81.0724 66.0648L82.8848 71.6445L76.7478 67.1849Z" fill="white"></path>
    <path fill-rule="evenodd" clip-rule="evenodd" d="M93.8228 76.1108H122.158V47.776H93.8228V76.1108Z" fill="#00B67A"></path>
    <path fill-rule="evenodd" clip-rule="evenodd" d="M117.952 59.969L110.364 59.9679L108.02 52.7513L105.676 59.9669L98.0874 59.9658L104.227 64.4275L101.882 71.6445L108.021 67.1849L111.814 64.4293L117.952 59.969ZM108.021 67.1849L112.345 66.0648L114.157 71.6445L108.021 67.1849Z" fill="white"></path>
    <path fill-rule="evenodd" clip-rule="evenodd" d="M125.096 76.1108H153.431V47.776H125.096V76.1108Z" fill="#00B67A"></path>
    <path fill-rule="evenodd" clip-rule="evenodd" d="M149.225 59.969L141.637 59.9679L139.293 52.7513L136.949 59.9669L129.36 59.9658L135.5 64.4275L133.155 71.6445L139.294 67.1849L143.087 64.4293L149.225 59.969ZM139.294 67.1849L143.618 66.0648L145.43 71.6445L139.294 67.1849Z" fill="white"></path>
  </g>
  <defs>
    <clipPath id="clip0_3393_4506">
      <rect width="153.877" height="75.3395" fill="white" transform="translate(0.00360107 0.866455)"></rect>
    </clipPath>
  </defs>
</svg>
