<?xml version="1.0" encoding="UTF-8"?>
<svg xmlns="http://www.w3.org/2000/svg" width="15" height="16" viewBox="0 0 15 16" fill="none">
  <path d="M0.60084 0.544756C-0.0178804 0.767612 -0.196752 1.53002 0.263623 1.99039C0.668283 2.39505 1.34565 2.31001 1.62715 1.82032L1.71512 1.67077L3.18128 1.66784H4.64744L4.29557 1.83791C3.67098 2.14287 3.00241 2.59445 2.91737 2.77625C2.82647 2.96392 2.96722 3.17505 3.18128 3.17505C3.25166 3.17505 3.34256 3.1252 3.54196 2.97565C4.30729 2.40678 5.22804 2.00212 6.17518 1.81445C6.35112 1.7822 6.52413 1.74701 6.56225 1.73821C6.62383 1.72648 6.62676 1.73528 6.62676 1.88776C6.62676 2.02265 6.63849 2.0637 6.7118 2.14287L6.79684 2.23964L7.48593 2.24844L8.17796 2.25723L8.2718 2.17219C8.35683 2.09889 8.36856 2.0637 8.38029 1.90829C8.39202 1.74114 8.39788 1.72941 8.45653 1.74114C8.48879 1.74701 8.66179 1.7822 8.83773 1.81445C9.78487 2.00212 10.7056 2.40678 11.471 2.97565C11.6704 3.1252 11.7613 3.17505 11.8316 3.17505C12.0457 3.17505 12.1864 2.96392 12.0955 2.77625C12.0105 2.59445 11.3419 2.14287 10.7174 1.83791L10.3655 1.66784H11.8316L13.2978 1.67077L13.3858 1.82032C13.7347 2.42437 14.6408 2.37159 14.934 1.72941C15.022 1.54175 15.022 1.20746 14.934 1.01979C14.6408 0.377614 13.7347 0.324831 13.3858 0.92889L13.2978 1.07844L10.8464 1.08137H8.39202L8.38029 0.873176C8.37149 0.679643 8.3627 0.656184 8.2718 0.577011L8.17796 0.491974L7.48593 0.500771L6.79684 0.509568L6.7118 0.606335C6.63556 0.691372 6.62676 0.723628 6.62676 0.89077V1.08137H4.16948H1.71512L1.64475 0.949416C1.45415 0.591673 0.982041 0.409869 0.60084 0.544756ZM1.08467 1.184C1.1873 1.28957 1.18437 1.46257 1.07588 1.57107C0.899937 1.74994 0.60084 1.62678 0.60084 1.37754C0.60084 1.11656 0.897004 0.996333 1.08467 1.184ZM7.79969 1.3746V1.66784H7.50646H7.21323V1.3746V1.08137H7.50646H7.79969V1.3746ZM14.3388 1.184C14.4414 1.28957 14.4385 1.46257 14.33 1.57107C14.154 1.74994 13.8549 1.62678 13.8549 1.37754C13.8549 1.11656 14.1511 0.996333 14.3388 1.184Z" fill="#912CC6"></path>
  <path d="M2.24366 3.45369C2.06186 3.52993 2.00614 3.77625 2.14396 3.91113C2.18502 3.95218 2.26712 3.99324 2.32577 4.00497C2.4196 4.01963 2.44599 4.0079 2.53689 3.917C2.67471 3.77918 2.67765 3.66482 2.53983 3.527C2.44013 3.4273 2.36095 3.40677 2.24366 3.45369Z" fill="#912CC6"></path>
  <path d="M7.35982 3.46818C7.30704 3.49751 6.88186 4.25111 5.79396 6.24509C4.96998 7.74938 4.29262 9.01321 4.28675 9.05426C4.28089 9.10118 4.47442 9.65539 4.80577 10.5351C5.099 11.3063 5.33652 11.9543 5.33652 11.9719C5.33652 11.9924 5.30133 12.0276 5.25735 12.0511C5.13419 12.1156 4.96118 12.359 4.9084 12.5408C4.79404 12.9279 4.97291 13.3618 5.32186 13.5466L5.45382 13.617V14.4585V15.303L5.53885 15.3969L5.62389 15.4936L7.48885 15.5024L9.35087 15.5083L9.44764 15.4233L9.54441 15.3382L9.5532 14.4732L9.562 13.6082L9.64997 13.573C9.78192 13.5173 9.99598 13.2973 10.0605 13.1448C10.2306 12.7666 10.1015 12.2798 9.77899 12.0716C9.72328 12.0335 9.67636 11.9895 9.67636 11.9719C9.67636 11.9514 9.91388 11.3063 10.2071 10.5351C10.5385 9.65539 10.732 9.10118 10.7261 9.05426C10.7203 9.01321 10.0429 7.74938 9.21892 6.24509C8.04892 4.09863 7.70877 3.50044 7.64719 3.46818C7.54749 3.41833 7.45366 3.41833 7.35982 3.46818ZM7.21321 6.57058L7.21028 8.2508L7.06073 8.33877C6.45667 8.68772 6.50945 9.59381 7.15163 9.88704C7.3393 9.97501 7.67358 9.97501 7.86125 9.88704C8.50343 9.59381 8.55621 8.68772 7.95215 8.33877L7.80261 8.2508V6.56472C7.80261 5.11029 7.80847 4.88743 7.84366 4.95194C7.86418 4.99299 8.34509 5.86976 8.91102 6.90193L9.93734 8.77862L9.53854 8.79328L9.14268 8.80794L9.05764 8.90471C8.94621 9.02787 8.94621 9.14516 9.05764 9.26832L9.14268 9.36509L9.5708 9.37388C9.80538 9.37975 9.99892 9.39441 9.99892 9.40321C9.99892 9.41493 9.79072 9.97794 9.53268 10.6553L9.06937 11.8869H7.50644H5.94351L5.48021 10.6553C5.22216 9.97794 5.01397 9.41493 5.01397 9.40027C5.01397 9.38854 5.1987 9.37975 5.42449 9.37975H5.83502L5.92885 9.29471C6.05787 9.18035 6.06374 9.00734 5.94351 8.89005C5.86434 8.81088 5.84968 8.80794 5.47141 8.79328L5.07555 8.77862L6.13705 6.83742C6.72058 5.76713 7.20148 4.89329 7.20734 4.89329C7.21028 4.89329 7.21321 5.64983 7.21321 6.57058ZM7.7117 8.89591C7.81433 9.00148 7.8114 9.17448 7.70291 9.28298C7.52697 9.46185 7.22787 9.33869 7.22787 9.08945C7.22787 8.82847 7.52403 8.70824 7.7117 8.89591ZM9.45644 12.5789C9.49749 12.62 9.53854 12.7021 9.55027 12.7607C9.56493 12.8545 9.5532 12.8809 9.4623 12.9718L9.35967 13.0745L7.49471 13.0686L5.62975 13.0598L5.55645 12.9836C5.51539 12.9425 5.47434 12.8604 5.46261 12.8018C5.44795 12.7079 5.45968 12.6815 5.55058 12.5906L5.65321 12.488L7.51817 12.4939L9.38313 12.5027L9.45644 12.5789ZM8.9726 14.2914V14.9218H7.50644H6.04028V14.2914V13.6609H7.50644H8.9726V14.2914Z" fill="#912CC6"></path>
  <path d="M12.5622 3.4564C12.4684 3.49452 12.3745 3.62941 12.3745 3.72324C12.3745 3.84054 12.5094 3.98129 12.6414 4.00181C12.7323 4.01648 12.7645 4.00475 12.8466 3.93144C12.9288 3.85813 12.9463 3.82294 12.9463 3.72031C12.9463 3.61768 12.9288 3.58249 12.8496 3.51212C12.7528 3.42708 12.6736 3.40949 12.5622 3.4564Z" fill="#912CC6"></path>
  <path d="M1.54827 4.43879C1.4603 4.48864 1.21691 4.94315 1.04097 5.39179C0.911952 5.72608 0.759471 6.27149 0.689096 6.65563L0.639246 6.94006L0.40466 6.95179C0.184736 6.96059 0.167142 6.96645 0.0850373 7.05735L0 7.15119V7.82562V8.50006L0.0850373 8.59389L0.170075 8.69066L0.865035 8.69945L1.55706 8.70825L1.65676 8.60855L1.75939 8.50592V7.82562V7.14532L1.65969 7.04562C1.56879 6.95472 1.5424 6.94593 1.39285 6.94593C1.24917 6.94593 1.22864 6.94006 1.2433 6.89314C1.2521 6.86675 1.27263 6.75826 1.29022 6.65269C1.33127 6.40345 1.47789 5.88736 1.57172 5.64984C1.61278 5.55014 1.72421 5.30089 1.82097 5.09856C1.98225 4.75548 1.99105 4.72616 1.96172 4.62059C1.9412 4.54435 1.90014 4.49157 1.83857 4.45345C1.72714 4.38601 1.65676 4.38308 1.54827 4.43879ZM1.17293 7.82562V8.11886H0.879697H0.586464V7.82562V7.53239H0.879697H1.17293V7.82562Z" fill="#912CC6"></path>
  <path d="M13.1753 4.45345C13.1137 4.49157 13.0726 4.54435 13.0521 4.62059C13.0228 4.72616 13.0316 4.75548 13.1929 5.09856C13.2896 5.30089 13.4011 5.55014 13.4421 5.64984C13.5359 5.88736 13.6826 6.40345 13.7236 6.65269C13.7412 6.75826 13.7617 6.86382 13.7705 6.89021C13.7823 6.93126 13.7529 6.94006 13.6034 6.95179C13.445 6.96352 13.4098 6.97525 13.3395 7.05735L13.2544 7.15119V7.82562V8.50006L13.3395 8.59389L13.4245 8.69066L14.1136 8.69945L14.8056 8.70825L14.9024 8.62028L14.9992 8.53524V7.82562V7.116L14.9024 7.03096C14.8144 6.95179 14.788 6.94593 14.5886 6.94593H14.3717L14.3541 6.8345C14.2485 6.163 14.0403 5.49149 13.7529 4.9021C13.5917 4.57074 13.5301 4.47691 13.4626 4.43879C13.3483 4.38014 13.2896 4.38308 13.1753 4.45345ZM14.4274 7.82562V8.11886H14.1341H13.8409V7.82562V7.53239H14.1341H14.4274V7.82562Z" fill="#912CC6"></path>
</svg>
