<?xml version="1.0" encoding="UTF-8"?>
<svg xmlns="http://www.w3.org/2000/svg" width="72" height="72" viewBox="0 0 72 72" fill="none">
  <circle cx="36" cy="36" r="36" fill="#912CC6"></circle>
  <path d="M32.29 38.0801H35.9404C39.2832 38.0801 41.3135 39.7207 41.3135 42.4277C41.3135 44.9297 39.1396 46.6729 36.043 46.6729C32.7822 46.6729 30.7314 45.0322 30.5469 42.5303H24.6201C24.9072 47.9854 29.2754 51.6562 35.9609 51.6562C42.79 51.6562 47.6094 48.1289 47.6094 42.8174C47.6094 38.7158 44.7588 36.0498 40.3496 35.6807V35.5576C43.9795 34.9014 46.4609 32.2764 46.4609 28.6465C46.4609 23.9092 42.2568 20.751 36.1045 20.751C29.6855 20.751 25.4199 24.3193 25.1943 29.7949H30.8955C31.0596 27.2109 32.9668 25.5088 35.8379 25.5088C38.9141 25.5088 40.6162 27.0879 40.6162 29.4873C40.6162 31.9277 38.709 33.6094 35.8789 33.6094H32.29V38.0801Z" fill="white"></path>
</svg>
