<?xml version="1.0" encoding="UTF-8"?>
<svg xmlns="http://www.w3.org/2000/svg" width="90" height="90" viewBox="0 0 90 90" fill="none">
  <mask id="mask0_2442_12125" style="mask-type:alpha" maskUnits="userSpaceOnUse" x="0" y="0" width="90" height="90">
    <rect width="90" height="90" fill="#FAFAFA"></rect>
  </mask>
  <g mask="url(#mask0_2442_12125)">
    <path d="M59.2499 43.4999V43.8106L59.4696 44.0303L69.0643 53.6249L64.7832 57.906L53.2499 46.2847V30.7499H59.2499V43.4999ZM56.2499 74.2499C48.0696 74.2499 41.1679 71.4198 35.499 65.7509C29.8301 60.082 26.9999 53.1802 26.9999 44.9999C26.9999 36.8838 29.8291 29.9957 35.5005 24.2925C41.1697 18.5942 48.0709 15.7499 56.2499 15.7499C64.3649 15.7499 71.2525 18.5931 76.956 24.2941C82.6568 29.9975 85.4999 36.8851 85.4999 44.9999C85.4999 53.1789 82.6557 60.0802 76.9573 65.7494C71.2542 71.4208 64.3661 74.2499 56.2499 74.2499ZM56.2499 68.2499C62.6966 68.2499 68.2005 65.985 72.7178 61.4678C77.235 56.9505 79.4999 51.4466 79.4999 44.9999C79.4999 38.5533 77.235 33.0494 72.7178 28.5321C68.2005 24.0149 62.6966 21.7499 56.2499 21.7499C49.8033 21.7499 44.2994 24.0149 39.7821 28.5321C35.2649 33.0494 32.9999 38.5533 32.9999 44.9999C32.9999 51.4466 35.2649 56.9505 39.7821 61.4678C44.2994 65.985 49.8033 68.2499 56.2499 68.2499ZM8.24994 32.9999V26.9999H21.7499V32.9999H8.24994ZM4.49994 47.9999V41.9999H21.7499V47.9999H4.49994ZM8.24994 62.9999V56.9999H21.7499V62.9999H8.24994Z" fill="#1C1B1F" stroke="#FAFAFA" stroke-width="1.5"></path>
    <path d="M8.24994 32.9999V26.9999H21.7499V32.9999H8.24994ZM4.49994 47.9999V41.9999H21.7499V47.9999H4.49994ZM8.24994 62.9999V56.9999H21.7499V62.9999H8.24994Z" fill="#912CC6" stroke="#912CC6" stroke-width="1.5"></path>
  </g>
</svg>
