<?xml version="1.0" encoding="UTF-8"?>
<svg xmlns="http://www.w3.org/2000/svg" width="72" height="72" viewBox="0 0 72 72" fill="none">
  <path d="M36.0036 51.0381L31.4186 40.8327L31.3407 40.6594L31.1674 40.5815L20.962 35.9964L31.1701 31.3362L31.3407 31.2583L31.418 31.0875L36.0036 20.9548L40.6645 31.0902L40.7418 31.2583L40.9098 31.3356L51.0453 35.9965L40.9126 40.5821L40.7418 40.6594L40.6639 40.8299L36.0036 51.0381ZM19.7806 67.2837L19.7804 67.2836C14.7322 64.641 10.5259 60.9439 7.1581 56.1862L6.25 54.9033V56.4751V64.7501H0.75V46.2501H19.25V51.7501H11.7875H10.8428L11.374 52.5312C14.1807 56.6587 17.7471 59.8964 22.0696 62.2382L22.0698 62.2384C26.3967 64.5792 31.0426 65.7501 36 65.7501C42.3319 65.7501 48.0791 63.9309 53.2274 60.296C58.2575 56.7461 61.8329 52.0621 63.9465 46.2562L69.3117 47.4943C66.8772 54.5223 62.6652 60.2077 56.6688 64.5627C50.5256 69.0221 43.641 71.2501 36 71.2501C30.2298 71.2501 24.8257 69.928 19.7806 67.2837ZM8.56571 24.629L8.56565 24.6291C7.5209 27.0592 6.84705 29.6001 6.54404 32.2501H0.971404C1.37344 28.8659 2.20826 25.6151 3.47567 22.4962C4.74286 19.3799 6.4678 16.4909 8.65236 13.8283L12.5858 17.7618C10.95 19.9139 9.60955 22.2031 8.56571 24.629ZM49.5008 3.39456C52.6191 4.66176 55.5091 6.38669 58.1718 8.57121L54.2383 12.5047C52.0862 10.8688 49.797 9.5284 47.3711 8.48456L47.371 8.4845C44.9409 7.43974 42.4 6.7659 39.75 6.46289V0.963408C43.1341 1.3167 46.3839 2.12712 49.5006 3.39452L49.5008 3.39456ZM68.6056 22.4962C69.873 25.6151 70.6834 28.8659 71.0367 32.2501H65.5372C65.2342 29.6001 64.5603 27.0592 63.5156 24.6291L63.5155 24.629C62.4717 22.2031 61.1313 19.9139 59.4954 17.7618L63.4289 13.8283C65.6134 16.4909 67.3384 19.3799 68.6056 22.4962ZM24.6694 8.48531C22.2685 9.52916 19.9929 10.8694 17.8429 12.5046L13.9129 8.57465C16.626 6.38576 19.5296 4.64507 22.624 3.35047C25.7127 2.06026 28.9209 1.26231 32.25 0.95625V6.4629C29.6012 6.76595 27.0738 7.43993 24.6694 8.48531Z" fill="black" stroke="#FAFAFA"></path>
  <path d="M35.5896 51.0341L31.0045 40.8287L30.9267 40.6554L30.7533 40.5775L20.5479 35.9925L30.7561 31.3322L30.9267 31.2543L31.004 31.0835L35.5896 20.9508L40.2504 31.0862L40.3277 31.2543L40.4958 31.3316L50.6313 35.9925L40.4985 40.5781L40.3277 40.6554L40.2498 40.8259L35.5896 51.0341Z" fill="#912CC6" stroke="#FAFAFA"></path>
</svg>
