<?xml version="1.0" encoding="UTF-8"?>
<svg xmlns="http://www.w3.org/2000/svg" width="56" height="56" viewBox="0 0 56 56" fill="none">
  <path d="M18.75 50.0833H19.25V49.5833V6.41667V5.91667H18.75H6.41667H5.91667V6.41667V49.5833V50.0833H6.41667H18.75ZM36.75 18.75V19.25H37.25H49.5833H50.0833V18.75V6.41667V5.91667H49.5833H37.25H36.75V6.41667V18.75ZM36.75 49.5833V50.0833H37.25H49.5833H50.0833V49.5833V37.25V36.75H49.5833H37.25H36.75V37.25V49.5833ZM24.4167 55.25H6.41667C4.8544 55.25 3.52892 54.7 2.41327 53.5863C1.29983 52.4708 0.75 51.1454 0.75 49.5833V6.41667C0.75 4.85449 1.2999 3.52908 2.41347 2.41347C3.52908 1.2999 4.85449 0.75 6.41667 0.75H24.4167V55.25ZM31.5833 24.4167V0.75H49.5833C51.1454 0.75 52.4708 1.29983 53.5863 2.41328C54.7 3.52892 55.25 4.8544 55.25 6.41667V24.4167H31.5833ZM31.5833 55.25V31.5833H55.25V49.5833C55.25 51.1455 54.7001 52.4709 53.5865 53.5865C52.4709 54.7001 51.1455 55.25 49.5833 55.25H31.5833Z" fill="#1C1B1F" stroke="#FAFAFA"></path>
  <path d="M36.7507 18.75V19.25H37.2507H49.584H50.084V18.75V6.41667V5.91667H49.584H37.2507H36.7507V6.41667V18.75ZM31.584 24.4167V0.75H49.584C51.1461 0.75 52.4715 1.29986 53.5871 2.41334C54.7007 3.52898 55.2507 4.85443 55.2507 6.41667V24.4167H31.584Z" fill="#912CC6" stroke="#FAFAFA"></path>
</svg>
