<?xml version="1.0" encoding="UTF-8"?>
<svg xmlns="http://www.w3.org/2000/svg" width="65" height="66" viewBox="0 0 65 66" fill="none">
  <path d="M55.666 18.3943L53.1905 13.0524L53.1134 12.8861L52.9471 12.809L47.6052 10.3335L52.9471 7.85798L53.1134 7.7809L53.1905 7.61456L55.666 2.27267L58.1415 7.61456L58.2186 7.7809L58.385 7.85798L63.7268 10.3335L58.385 12.809L58.2186 12.8861L58.1415 13.0524L55.666 18.3943ZM20.2077 18.3943L17.7322 13.0524L17.6551 12.8861L17.4887 12.809L12.1469 10.3335L17.4887 7.85798L17.6551 7.7809L17.7322 7.61456L20.2077 2.27267L22.6832 7.61456L22.7603 7.7809L22.9266 7.85798L28.2685 10.3335L22.9266 12.809L22.7603 12.8861L22.6832 13.0524L20.2077 18.3943ZM55.666 53.8527L53.1905 48.5108L53.1134 48.3444L52.9471 48.2673L47.6052 45.7918L52.9471 43.3163L53.1134 43.2392L53.1905 43.0729L55.666 37.731L58.1415 43.0729L58.2186 43.2392L58.385 43.3163L63.7268 45.7918L58.385 48.2673L58.2186 48.3444L58.1415 48.5108L55.666 53.8527ZM11.6833 58.787L12.0381 59.1418L12.3916 58.7858L34.4375 36.5858L34.7886 36.2323L34.4362 35.8799L30.1196 31.5633L29.7672 31.211L29.4137 31.562L7.2137 53.6079L6.85768 53.9614L7.21246 54.3162L11.6833 58.787ZM10.0779 64.5549L1.44457 55.9216C0.921854 55.3989 0.666016 54.781 0.666016 54.0397C0.666016 53.2985 0.921853 52.6806 1.44457 52.1579L35.8237 17.7787C36.3465 17.256 36.9643 17.0002 37.7056 17.0002C38.4469 17.0002 39.0647 17.256 39.5875 17.7787L48.2208 26.4121C48.7435 26.9348 48.9993 27.5526 48.9993 28.2939C48.9993 29.0352 48.7435 29.6531 48.2208 30.1758L13.8416 64.5549C13.3189 65.0777 12.701 65.3335 11.9598 65.3335C11.2185 65.3335 10.6006 65.0777 10.0779 64.5549Z" fill="#1C1B1F" stroke="#FAFAFA"></path>
  <path d="M55.4642 19.1143L52.535 12.7934L46.2142 9.86426L52.535 6.93509L55.4642 0.614258L58.3934 6.93509L64.7142 9.86426L58.3934 12.7934L55.4642 19.1143ZM20.0059 19.1143L17.0767 12.7934L10.7559 9.86426L17.0767 6.93509L20.0059 0.614258L22.935 6.93509L29.2559 9.86426L22.935 12.7934L20.0059 19.1143ZM55.4642 54.5726L52.535 48.2518L46.2142 45.3226L52.535 42.3934L55.4642 36.0726L58.3934 42.3934L64.7142 45.3226L58.3934 48.2518L55.4642 54.5726Z" fill="#912CC6"></path>
</svg>
