<?xml version="1.0" encoding="UTF-8"?>
<svg xmlns="http://www.w3.org/2000/svg" width="25" height="21" viewBox="0 0 25 21" fill="none">
  <path d="M7.21617 20.4128C5.86246 20.4128 4.66801 20.1252 3.63283 19.5501C2.59764 18.9662 1.78807 18.1566 1.20412 17.1214C0.629011 16.0862 0.341459 14.8918 0.341459 13.5381V7.38005C0.341459 6.02634 0.629011 4.83189 1.20412 3.7967C1.78807 2.76152 2.59764 1.95637 3.63283 1.38127C4.66801 0.797314 5.86246 0.505338 7.21617 0.505338C8.56988 0.505338 9.7599 0.797314 10.7862 1.38127C11.8214 1.95637 12.631 2.76152 13.2149 3.7967C13.7989 4.83189 14.0909 6.02634 14.0909 7.38005V13.5381C14.0909 14.8918 13.7989 16.0862 13.2149 17.1214C12.631 18.1566 11.8214 18.9662 10.7862 19.5501C9.7599 20.1252 8.56988 20.4128 7.21617 20.4128ZM7.21617 17.3736C7.8886 17.3736 8.49909 17.2143 9.04766 16.8958C9.59622 16.5684 10.0298 16.1349 10.3483 15.5952C10.6668 15.0466 10.8261 14.4361 10.8261 13.7637V7.14116C10.8261 6.45988 10.6668 5.84938 10.3483 5.30967C10.0298 4.76111 9.59622 4.32757 9.04766 4.00905C8.49909 3.68168 7.8886 3.518 7.21617 3.518C6.54374 3.518 5.93324 3.68168 5.38468 4.00905C4.83612 4.32757 4.40258 4.76111 4.08406 5.30967C3.76554 5.84938 3.60628 6.45988 3.60628 7.14116V13.7637C3.60628 14.4361 3.76554 15.0466 4.08406 15.5952C4.40258 16.1349 4.83612 16.5684 5.38468 16.8958C5.93324 17.2143 6.54374 17.3736 7.21617 17.3736ZM21.1302 20.0146V4.39393L17.5469 6.58375V3.05349L21.1302 0.903486H24.3951V20.0146H21.1302Z" fill="#912CC6"></path>
</svg>
