<?xml version="1.0" encoding="UTF-8"?>
<svg xmlns="http://www.w3.org/2000/svg" width="31" height="21" viewBox="0 0 31 21" fill="none">
  <path d="M7.29865 20.4875C5.94494 20.4875 4.75049 20.2 3.71531 19.6248C2.68012 19.0409 1.87055 18.2313 1.2866 17.1961C0.711492 16.1609 0.42394 14.9665 0.42394 13.6128V7.45475C0.42394 6.10105 0.711492 4.9066 1.2866 3.87141C1.87055 2.83622 2.68012 2.03108 3.71531 1.45597C4.75049 0.872021 5.94494 0.580045 7.29865 0.580045C8.65236 0.580045 9.84238 0.872021 10.8687 1.45597C11.9039 2.03108 12.7135 2.83622 13.2974 3.87141C13.8814 4.9066 14.1734 6.10105 14.1734 7.45475V13.6128C14.1734 14.9665 13.8814 16.1609 13.2974 17.1961C12.7135 18.2313 11.9039 19.0409 10.8687 19.6248C9.84238 20.2 8.65236 20.4875 7.29865 20.4875ZM7.29865 17.4483C7.97108 17.4483 8.58158 17.289 9.13014 16.9705C9.6787 16.6432 10.1122 16.2096 10.4308 15.6699C10.7493 15.1213 10.9085 14.5108 10.9085 13.8384V7.21586C10.9085 6.53459 10.7493 5.92409 10.4308 5.38438C10.1122 4.83582 9.6787 4.40228 9.13014 4.08376C8.58158 3.75639 7.97108 3.59271 7.29865 3.59271C6.62622 3.59271 6.01572 3.75639 5.46716 4.08376C4.9186 4.40228 4.48506 4.83582 4.16654 5.38438C3.84802 5.92409 3.68876 6.53459 3.68876 7.21586V13.8384C3.68876 14.5108 3.84802 15.1213 4.16654 15.6699C4.48506 16.2096 4.9186 16.6432 5.46716 16.9705C6.01572 17.289 6.62622 17.4483 7.29865 17.4483ZM17.3639 20.0628V17.2758L25.5393 9.98964C26.1763 9.42338 26.6187 8.88809 26.8664 8.38377C27.1142 7.87945 27.238 7.39282 27.238 6.92389C27.238 6.28685 27.1009 5.72059 26.8266 5.22512C26.5523 4.7208 26.1719 4.32265 25.6853 4.03067C25.2075 3.73869 24.6545 3.59271 24.0263 3.59271C23.3627 3.59271 22.7743 3.74754 22.2612 4.05721C21.7569 4.35804 21.3631 4.76061 21.08 5.26493C20.7969 5.76926 20.6642 6.31339 20.6819 6.89735H17.3905C17.3905 5.62327 17.6736 4.51287 18.2399 3.56616C18.815 2.61945 19.6024 1.88509 20.6022 1.36307C21.6109 0.841054 22.7743 0.580045 24.0927 0.580045C25.3137 0.580045 26.4108 0.854325 27.384 1.40289C28.3573 1.9426 29.1226 2.69466 29.68 3.65906C30.2374 4.61462 30.5161 5.71617 30.5161 6.9637C30.5161 7.87502 30.3923 8.64035 30.1445 9.2597C29.8968 9.87904 29.5252 10.4497 29.0297 10.9717C28.5431 11.4938 27.937 12.0733 27.2115 12.7103L21.4118 17.8464L21.1198 17.0501H30.5161V20.0628H17.3639Z" fill="#912CC6"></path>
</svg>
