<?xml version="1.0" encoding="UTF-8"?>
<svg xmlns="http://www.w3.org/2000/svg" width="30" height="21" viewBox="0 0 30 21" fill="none">
  <path d="M7.2986 20.5622C5.94489 20.5622 4.75044 20.2747 3.71526 19.6996C2.68007 19.1156 1.8705 18.306 1.28655 17.2708C0.711443 16.2357 0.42389 15.0412 0.42389 13.6875V7.52946C0.42389 6.17575 0.711443 4.98131 1.28655 3.94612C1.8705 2.91093 2.68007 2.10578 3.71526 1.53068C4.75044 0.946728 5.94489 0.654752 7.2986 0.654752C8.65231 0.654752 9.84233 0.946728 10.8687 1.53068C11.9039 2.10578 12.7134 2.91093 13.2974 3.94612C13.8813 4.98131 14.1733 6.17575 14.1733 7.52946V13.6875C14.1733 15.0412 13.8813 16.2357 13.2974 17.2708C12.7134 18.306 11.9039 19.1156 10.8687 19.6996C9.84233 20.2747 8.65231 20.5622 7.2986 20.5622ZM7.2986 17.523C7.97103 17.523 8.58153 17.3637 9.13009 17.0452C9.67865 16.7179 10.1122 16.2843 10.4307 15.7446C10.7492 15.196 10.9085 14.5855 10.9085 13.9131V7.29057C10.9085 6.60929 10.7492 5.9988 10.4307 5.45909C10.1122 4.91052 9.67865 4.47698 9.13009 4.15846C8.58153 3.8311 7.97103 3.66741 7.2986 3.66741C6.62617 3.66741 6.01567 3.8311 5.46711 4.15846C4.91855 4.47698 4.48501 4.91052 4.16649 5.45909C3.84797 5.9988 3.68871 6.60929 3.68871 7.29057V13.9131C3.68871 14.5855 3.84797 15.196 4.16649 15.7446C4.48501 16.2843 4.91855 16.7179 5.46711 17.0452C6.01567 17.3637 6.62617 17.523 7.2986 17.523ZM23.3627 20.5224C22.4071 20.5224 21.5046 20.3366 20.6553 19.965C19.8059 19.5934 19.0671 19.0669 18.4389 18.3857C17.8196 17.7044 17.3727 16.8992 17.0985 15.9702L20.1908 15.1341C20.4119 15.895 20.8145 16.4834 21.3985 16.8992C21.9913 17.3062 22.6416 17.5053 23.3494 17.4965C23.9776 17.4965 24.5394 17.3505 25.0349 17.0585C25.5304 16.7665 25.9197 16.3728 26.2028 15.8773C26.4859 15.373 26.6275 14.8112 26.6275 14.1918C26.6275 13.2451 26.3223 12.4532 25.7118 11.8162C25.1013 11.1792 24.3138 10.8606 23.3494 10.8606C23.0574 10.8606 22.7699 10.9005 22.4867 10.9801C22.2125 11.0597 21.947 11.1703 21.6904 11.3119L20.2306 8.79027L26.654 3.29581L26.9327 4.06556H17.8417V1.0529H29.5605V4.07883L24.3979 9.04243L24.3713 8.10014C25.5304 8.17977 26.5169 8.50271 27.3309 9.06897C28.1537 9.63523 28.7819 10.3652 29.2155 11.2588C29.6579 12.1524 29.8791 13.1301 29.8791 14.1918C29.8791 15.3951 29.5827 16.4745 28.9899 17.4301C28.4059 18.3857 27.6184 19.1421 26.6275 19.6996C25.6454 20.2481 24.5571 20.5224 23.3627 20.5224Z" fill="#912CC6"></path>
</svg>
