<?xml version="1.0" encoding="UTF-8"?>
<svg xmlns="http://www.w3.org/2000/svg" width="31" height="21" viewBox="0 0 31 21" fill="none">
  <path d="M7.29865 20.6369C5.94494 20.6369 4.75049 20.3494 3.71531 19.7743C2.68012 19.1903 1.87055 18.3807 1.2866 17.3456C0.711492 16.3104 0.42394 15.1159 0.42394 13.7622V7.60417C0.42394 6.25046 0.711492 5.05601 1.2866 4.02083C1.87055 2.98564 2.68012 2.18049 3.71531 1.60539C4.75049 1.02143 5.94494 0.729459 7.29865 0.729459C8.65236 0.729459 9.84238 1.02143 10.8687 1.60539C11.9039 2.18049 12.7135 2.98564 13.2974 4.02083C13.8814 5.05601 14.1734 6.25046 14.1734 7.60417V13.7622C14.1734 15.1159 13.8814 16.3104 13.2974 17.3456C12.7135 18.3807 11.9039 19.1903 10.8687 19.7743C9.84238 20.3494 8.65236 20.6369 7.29865 20.6369ZM7.29865 17.5977C7.97108 17.5977 8.58158 17.4385 9.13014 17.1199C9.6787 16.7926 10.1122 16.359 10.4308 15.8193C10.7493 15.2708 10.9085 14.6603 10.9085 13.9878V7.36528C10.9085 6.684 10.7493 6.07351 10.4308 5.53379C10.1122 4.98523 9.6787 4.55169 9.13014 4.23317C8.58158 3.9058 7.97108 3.74212 7.29865 3.74212C6.62622 3.74212 6.01572 3.9058 5.46716 4.23317C4.9186 4.55169 4.48506 4.98523 4.16654 5.53379C3.84802 6.07351 3.68876 6.684 3.68876 7.36528V13.9878C3.68876 14.6603 3.84802 15.2708 4.16654 15.8193C4.48506 16.359 4.9186 16.7926 5.46716 17.1199C6.01572 17.4385 6.62622 17.5977 7.29865 17.5977ZM25.8313 20.2388V17.0801H17.3639V14.094L23.4822 1.12761H27.1319L21.0136 14.094H25.8313V9.11713H29.0695V14.094H30.8612V17.0801H29.0695V20.2388H25.8313Z" fill="#912CC6"></path>
</svg>
