<?xml version="1.0" encoding="UTF-8"?>
<svg xmlns="http://www.w3.org/2000/svg" width="265" height="243" viewBox="0 0 265 243" fill="none">
  <g clip-path="url(#clip0_3393_4810)">
    <path d="M0.71283 13.592L49.9042 0.755859L73.0465 1.94982L89.0655 8.62882L0.71283 13.592Z" fill="#E8F0FF"></path>
    <path d="M0.71283 13.593L86.7699 13.3674L89.0655 8.62598" fill="#0155FA"></path>
    <path d="M85.5511 27.8127L85.4046 27.9548L78.8256 39.6339L0.916565 13.6494L85.5511 27.8127Z" fill="#0155FA"></path>
    <path d="M102.845 24.3849L93.6986 12.1006L1.27222 13.5908L76.2586 30.303L102.845 24.3849Z" fill="#E8F0FF"></path>
    <path d="M243.676 230.628C241.248 229.009 238.936 227.222 236.759 225.28C236.64 225.171 236.502 225.086 236.35 225.03C236.199 224.975 236.038 224.951 235.877 224.958C235.716 224.966 235.558 225.006 235.413 225.075C235.267 225.145 235.137 225.242 235.03 225.363C234.923 225.483 234.841 225.624 234.789 225.776C234.737 225.929 234.715 226.09 234.726 226.251C234.737 226.411 234.78 226.569 234.853 226.712C234.925 226.856 235.025 226.984 235.148 227.089C237.409 229.107 239.809 230.963 242.33 232.645C243.232 233.246 244.148 233.826 245.078 234.382C245.214 234.464 245.365 234.519 245.522 234.542C245.68 234.566 245.84 234.558 245.994 234.519C246.148 234.481 246.293 234.413 246.421 234.318C246.549 234.223 246.657 234.105 246.739 233.969C246.821 233.832 246.875 233.681 246.898 233.524C246.922 233.367 246.914 233.207 246.876 233.053C246.837 232.898 246.769 232.753 246.674 232.626C246.58 232.498 246.461 232.39 246.325 232.308C245.432 231.77 244.549 231.21 243.676 230.628Z" fill="white"></path>
    <path d="M128.5 21.6414C124.718 21.1798 120.756 20.8143 116.376 20.5226C116.06 20.509 115.751 20.6196 115.516 20.8307C115.28 21.0418 115.136 21.3367 115.115 21.6523C115.094 21.968 115.198 22.2793 115.403 22.5198C115.609 22.7602 115.9 22.9108 116.215 22.9392C120.547 23.2264 124.47 23.5888 128.206 24.046C128.364 24.0653 128.525 24.0533 128.678 24.0106C128.831 23.968 128.975 23.8956 129.1 23.7976C129.225 23.6995 129.33 23.5777 129.409 23.4391C129.487 23.3005 129.537 23.1479 129.556 22.9899C129.576 22.8319 129.564 22.6717 129.521 22.5184C129.478 22.365 129.406 22.2216 129.308 22.0962C129.21 21.9709 129.088 21.866 128.95 21.7877C128.811 21.7095 128.658 21.6592 128.5 21.6399V21.6414Z" fill="white"></path>
    <path d="M147.849 27.5161C148.084 27.4201 148.283 27.2526 148.418 27.0372C148.552 26.8218 148.616 26.5695 148.599 26.3161C148.583 26.0626 148.487 25.8208 148.325 25.6248C148.163 25.4289 147.944 25.2888 147.698 25.2243C143.939 24.2334 139.921 23.3785 135.749 22.6815C135.432 22.6287 135.107 22.704 134.846 22.8907C134.585 23.0774 134.408 23.3602 134.355 23.677C134.303 23.9937 134.378 24.3185 134.565 24.5798C134.751 24.8411 135.034 25.0175 135.351 25.0702C139.449 25.7545 143.396 26.5943 147.08 27.5657C147.335 27.6343 147.605 27.6168 147.849 27.5161Z" fill="white"></path>
    <path d="M224.628 210.722C224.547 210.585 224.439 210.465 224.311 210.37C224.182 210.275 224.036 210.207 223.881 210.17C223.726 210.133 223.565 210.127 223.407 210.153C223.25 210.179 223.099 210.236 222.964 210.321C222.828 210.404 222.71 210.513 222.617 210.641C222.523 210.77 222.455 210.916 222.418 211.07C222.381 211.225 222.375 211.386 222.4 211.543C222.425 211.7 222.481 211.85 222.564 211.986C224.708 215.495 227.168 218.802 229.913 221.863C230.08 222.049 230.3 222.179 230.543 222.235C230.787 222.291 231.042 222.27 231.273 222.175C231.401 222.124 231.52 222.049 231.622 221.956C231.861 221.741 232.005 221.441 232.022 221.121C232.04 220.8 231.929 220.486 231.715 220.247C229.069 217.293 226.697 214.105 224.628 210.722Z" fill="white"></path>
    <path d="M220.664 206.057C220.808 205.989 220.938 205.894 221.045 205.777C221.152 205.659 221.235 205.522 221.289 205.372C221.344 205.223 221.368 205.064 221.36 204.905C221.353 204.746 221.315 204.59 221.247 204.446C220.79 203.467 220.357 202.478 219.946 201.479C218.854 198.813 217.947 196.075 217.23 193.284C217.151 192.973 216.952 192.706 216.676 192.542C216.4 192.378 216.07 192.33 215.759 192.409C215.45 192.492 215.185 192.692 215.021 192.968C214.858 193.243 214.809 193.572 214.885 193.883C215.628 196.782 216.571 199.627 217.706 202.396C218.129 203.432 218.58 204.457 219.059 205.472C219.191 205.753 219.425 205.974 219.715 206.087C220.004 206.2 220.326 206.197 220.614 206.079C220.628 206.073 220.647 206.065 220.664 206.057Z" fill="white"></path>
    <path d="M214.827 187.655C214.984 187.633 215.136 187.58 215.272 187.499C215.409 187.418 215.529 187.311 215.624 187.183C215.719 187.056 215.789 186.911 215.828 186.757C215.867 186.603 215.876 186.443 215.853 186.285C215.308 182.345 215.048 178.371 215.076 174.393C215.076 174.234 215.045 174.077 214.985 173.93C214.924 173.783 214.835 173.649 214.723 173.536C214.611 173.424 214.478 173.334 214.331 173.273C214.185 173.212 214.027 173.18 213.868 173.18C213.709 173.179 213.552 173.21 213.405 173.271C213.258 173.331 213.124 173.42 213.012 173.532C212.899 173.644 212.81 173.777 212.749 173.924C212.687 174.071 212.656 174.228 212.655 174.387C212.625 178.481 212.893 182.572 213.457 186.627C213.479 186.784 213.532 186.936 213.613 187.073C213.694 187.21 213.801 187.33 213.928 187.425C214.056 187.521 214.2 187.59 214.355 187.63C214.509 187.669 214.669 187.678 214.827 187.655Z" fill="white"></path>
    <path d="M209.173 79.6073C209.847 81.0484 210.485 82.5048 211.088 83.9765C211.996 86.1968 212.825 88.4668 213.552 90.7247C213.651 91.0305 213.867 91.2847 214.152 91.4313C214.438 91.578 214.771 91.6051 215.076 91.5067C215.106 91.4969 215.135 91.4864 215.165 91.4736C215.447 91.3579 215.674 91.1401 215.802 90.8638C215.931 90.5875 215.95 90.2731 215.856 89.9833C215.112 87.666 214.262 85.3367 213.33 83.0592C212.713 81.5505 212.058 80.0572 211.364 78.5795C211.304 78.4297 211.212 78.2944 211.096 78.1824C210.979 78.0703 210.84 77.984 210.688 77.929C210.537 77.8741 210.375 77.8517 210.214 77.8634C210.052 77.875 209.895 77.9205 209.753 77.9968C209.609 78.0643 209.48 78.1596 209.373 78.2771C209.266 78.3946 209.183 78.5322 209.129 78.6817C209.075 78.8313 209.051 78.9901 209.059 79.1489C209.066 79.3077 209.105 79.4635 209.173 79.6073Z" fill="white"></path>
    <path d="M215.479 97.6305C216.396 101.506 217.051 105.439 217.438 109.402C217.444 109.567 217.484 109.728 217.555 109.877C217.627 110.026 217.727 110.158 217.851 110.267C217.975 110.375 218.12 110.457 218.277 110.507C218.434 110.558 218.6 110.576 218.764 110.56C218.928 110.544 219.087 110.495 219.231 110.416C219.375 110.336 219.502 110.228 219.603 110.098C219.704 109.968 219.778 109.819 219.819 109.659C219.861 109.5 219.869 109.333 219.844 109.171C219.448 105.097 218.776 101.055 217.833 97.0719C217.759 96.7592 217.563 96.4888 217.29 96.3201C217.016 96.1514 216.687 96.0982 216.374 96.1723C216.062 96.2464 215.791 96.4416 215.623 96.7151C215.454 96.9886 215.401 97.3179 215.475 97.6305H215.479Z" fill="white"></path>
    <path d="M199.395 63.1918C201.761 66.404 203.929 69.7571 205.888 73.2325C206.032 73.4893 206.266 73.6844 206.544 73.7813C206.823 73.8782 207.127 73.8702 207.4 73.7588C207.447 73.7392 207.493 73.7169 207.538 73.6919C207.817 73.5342 208.023 73.2719 208.109 72.9629C208.195 72.6539 208.155 72.3233 207.997 72.0438C205.99 68.4834 203.77 65.0478 201.348 61.7557C201.157 61.4965 200.872 61.3235 200.554 61.2747C200.236 61.226 199.912 61.3056 199.653 61.4959C199.393 61.6863 199.22 61.9718 199.172 62.2897C199.123 62.6076 199.202 62.9318 199.393 63.1911L199.395 63.1918Z" fill="white"></path>
    <path d="M181.154 44.3339C181.407 44.5322 181.728 44.6221 182.047 44.5837C182.365 44.5454 182.656 44.382 182.854 44.1294C183.053 43.8768 183.142 43.5559 183.104 43.237C183.066 42.9182 182.902 42.6277 182.65 42.4294C179.433 39.9035 176.058 37.5862 172.546 35.4917C172.409 35.4068 172.257 35.3501 172.098 35.3247C171.939 35.2993 171.776 35.3059 171.62 35.344C171.464 35.3821 171.317 35.4511 171.187 35.5467C171.058 35.6424 170.949 35.7629 170.866 35.9012C170.784 36.0395 170.73 36.1928 170.708 36.3522C170.685 36.5116 170.695 36.6738 170.736 36.8295C170.777 36.9851 170.848 37.1311 170.946 37.2587C171.044 37.3864 171.167 37.4932 171.307 37.5729C174.73 39.6144 178.019 41.8726 181.154 44.3339Z" fill="white"></path>
    <path d="M216.084 149.071C216.241 149.092 216.402 149.082 216.555 149.042C216.709 149.001 216.853 148.931 216.98 148.835C217.106 148.738 217.213 148.618 217.293 148.481C217.373 148.343 217.425 148.192 217.446 148.034L217.655 146.514C218.132 143.014 218.61 139.511 219.023 136.003C219.06 135.684 218.97 135.363 218.771 135.111C218.571 134.859 218.28 134.696 217.961 134.659C217.642 134.621 217.321 134.712 217.069 134.911C216.817 135.11 216.654 135.401 216.617 135.72C216.206 139.212 215.73 142.701 215.255 146.187L215.048 147.706C215.026 147.864 215.036 148.024 215.076 148.178C215.116 148.332 215.187 148.477 215.283 148.603C215.379 148.73 215.499 148.837 215.637 148.917C215.774 148.997 215.926 149.049 216.084 149.071Z" fill="white"></path>
    <path d="M194.936 57.5696C195.101 57.7633 195.323 57.9 195.57 57.96C195.818 58.0201 196.078 58.0006 196.314 57.9042C196.434 57.8548 196.545 57.7868 196.643 57.7027C196.887 57.4939 197.038 57.1967 197.063 56.8767C197.088 56.5566 196.984 56.2398 196.775 55.9959C194.118 52.8897 191.275 49.9484 188.26 47.1883C188.022 46.9715 187.709 46.8579 187.388 46.8723C187.067 46.8868 186.765 47.0282 186.548 47.2654C186.331 47.5026 186.217 47.8161 186.232 48.1371C186.246 48.4581 186.388 48.7603 186.625 48.977C189.568 51.6689 192.343 54.5385 194.936 57.5696Z" fill="white"></path>
    <path d="M215.449 153.873C215.29 153.853 215.13 153.864 214.976 153.906C214.822 153.948 214.678 154.02 214.552 154.118C214.427 154.215 214.321 154.337 214.243 154.476C214.164 154.615 214.114 154.768 214.095 154.926C213.508 159.643 213.133 163.498 212.906 167.052C212.893 167.368 213.005 167.677 213.217 167.912C213.429 168.147 213.725 168.29 214.041 168.31C214.358 168.329 214.669 168.224 214.909 168.017C215.149 167.81 215.298 167.518 215.324 167.202C215.546 163.697 215.918 159.891 216.497 155.221C216.535 154.903 216.447 154.583 216.251 154.331C216.054 154.078 215.766 153.914 215.449 153.873Z" fill="white"></path>
    <path d="M252.628 235.669C252.339 235.539 252.011 235.528 251.713 235.637C251.416 235.747 251.174 235.968 251.038 236.254C250.903 236.541 250.884 236.869 250.988 237.168C251.091 237.467 251.308 237.714 251.591 237.856C255.288 239.596 259.09 241.103 262.975 242.367C263.28 242.468 263.613 242.444 263.9 242.299C264.187 242.155 264.405 241.903 264.506 241.598C264.607 241.293 264.582 240.96 264.438 240.673C264.294 240.386 264.041 240.168 263.736 240.067C259.946 238.832 256.236 237.363 252.628 235.669Z" fill="white"></path>
    <path d="M219.014 115.329C218.693 115.334 218.387 115.466 218.163 115.696C217.939 115.926 217.815 116.236 217.819 116.557C217.867 120.241 217.714 124.162 217.35 128.533C217.323 128.853 217.425 129.17 217.632 129.415C217.84 129.661 218.136 129.813 218.456 129.84C218.776 129.866 219.093 129.765 219.339 129.557C219.584 129.35 219.736 129.054 219.763 128.734C220.134 124.283 220.289 120.289 220.239 116.525C220.235 116.204 220.104 115.898 219.874 115.673C219.644 115.449 219.335 115.325 219.014 115.329Z" fill="white"></path>
    <path d="M158.744 28.7749C157.415 28.2637 156.077 27.7817 154.731 27.329C154.428 27.2341 154.1 27.2615 153.818 27.4055C153.535 27.5494 153.32 27.7983 153.219 28.0989C153.118 28.3995 153.139 28.7278 153.277 29.0133C153.415 29.2988 153.659 29.5188 153.958 29.6261C155.273 30.0667 156.579 30.5364 157.874 31.0351C160.28 31.9599 162.679 33.0103 165.006 34.1562C165.149 34.2295 165.305 34.2735 165.465 34.2859C165.625 34.2982 165.786 34.2785 165.939 34.228C166.091 34.1775 166.232 34.0971 166.353 33.9915C166.475 33.886 166.573 33.7574 166.644 33.6132C166.715 33.469 166.757 33.3122 166.767 33.1518C166.776 32.9915 166.754 32.8308 166.701 32.6792C166.648 32.5275 166.565 32.388 166.457 32.2686C166.35 32.1493 166.22 32.0525 166.074 31.984C163.683 30.8043 161.216 29.7268 158.744 28.7749Z" fill="white"></path>
  </g>
  <defs>
    <clipPath id="clip0_3393_4810">
      <rect width="263.854" height="241.68" fill="white" transform="translate(0.71283 0.75293)"></rect>
    </clipPath>
  </defs>
</svg>
