<?xml version="1.0" encoding="UTF-8"?>
<svg xmlns="http://www.w3.org/2000/svg" width="154" height="29" viewBox="0 0 154 29" fill="none">
  <path fill-rule="evenodd" clip-rule="evenodd" d="M0 28.3347H28.3347V0H0V28.3347Z" fill="#00B67A"></path>
  <path fill-rule="evenodd" clip-rule="evenodd" d="M24.1297 12.1932L16.5414 12.1922L14.1973 4.97559L11.8533 12.1911L4.26462 12.1901L10.4041 16.6518L8.05931 23.8687L14.1981 19.4091L17.991 16.6536L24.1297 12.1932ZM14.1981 19.4091L18.5223 18.289L20.335 23.8687L14.1981 19.4091Z" fill="white"></path>
  <path fill-rule="evenodd" clip-rule="evenodd" d="M31.2731 28.3347H59.6078V0H31.2731V28.3347Z" fill="#00B67A"></path>
  <path fill-rule="evenodd" clip-rule="evenodd" d="M55.4027 12.1932L47.8143 12.1922L45.4699 4.97559L43.1259 12.1911L35.5376 12.1901L41.677 16.6518L39.3323 23.8687L45.471 19.4091L49.2639 16.6536L55.4027 12.1932ZM45.471 19.4091L49.7952 18.289L51.6076 23.8687L45.471 19.4091Z" fill="white"></path>
  <path fill-rule="evenodd" clip-rule="evenodd" d="M62.5461 28.3347H90.8812V0H62.5461V28.3347Z" fill="#00B67A"></path>
  <path fill-rule="evenodd" clip-rule="evenodd" d="M86.6757 12.1932L79.0874 12.1922L76.7433 4.97559L74.3993 12.1911L66.8106 12.1901L72.95 16.6518L70.6056 23.8687L76.744 19.4091L80.5369 16.6536L86.6757 12.1932ZM76.744 19.4091L81.0686 18.289L82.881 23.8687L76.744 19.4091Z" fill="white"></path>
  <path fill-rule="evenodd" clip-rule="evenodd" d="M93.819 28.3347H122.154V0H93.819V28.3347Z" fill="#00B67A"></path>
  <path fill-rule="evenodd" clip-rule="evenodd" d="M117.949 12.1932L110.36 12.1922L108.016 4.97559L105.672 12.1911L98.0836 12.1901L104.223 16.6518L101.878 23.8687L108.017 19.4091L111.81 16.6536L117.949 12.1932ZM108.017 19.4091L112.341 18.289L114.154 23.8687L108.017 19.4091Z" fill="white"></path>
  <path fill-rule="evenodd" clip-rule="evenodd" d="M125.092 28.3347H153.427V0H125.092V28.3347Z" fill="#00B67A"></path>
  <path fill-rule="evenodd" clip-rule="evenodd" d="M149.222 12.1932L141.633 12.1922L139.289 4.97559L136.945 12.1911L129.356 12.1901L135.496 16.6518L133.151 23.8687L139.29 19.4091L143.083 16.6536L149.222 12.1932ZM139.29 19.4091L143.614 18.289L145.426 23.8687L139.29 19.4091Z" fill="white"></path>
</svg>
