<?xml version="1.0" encoding="UTF-8"?>
<svg xmlns="http://www.w3.org/2000/svg" width="196" height="38" viewBox="0 0 196 38" fill="none">
  <path fill-rule="evenodd" clip-rule="evenodd" d="M39.2146 37.2526C38.9084 16.4535 27.4183 0.768965 1.40257 0.333091C1.11025 0.327902 0.869834 0.564865 0.869834 0.857177V4.38568C0.869834 5.05159 0.728002 5.58433 1.39392 5.61027C21.0099 6.25025 32.8149 16.0314 32.9774 37.2578C32.9999 37.9254 33.5344 37.7853 34.202 37.7853H38.6888C38.9811 37.7871 39.2198 37.5449 39.2146 37.2526Z" fill="white"></path>
  <path fill-rule="evenodd" clip-rule="evenodd" d="M22.3677 21.1885C20.8128 21.1885 19.5449 22.4615 19.5449 24.0234C19.5449 25.5835 20.8145 26.8583 22.3677 26.8583C23.9227 26.8583 25.1923 25.5835 25.1923 24.0234C25.1923 22.4632 23.9244 21.1885 22.3677 21.1885Z" fill="white"></path>
  <path fill-rule="evenodd" clip-rule="evenodd" d="M14.4406 32.7559C13.1295 32.7559 12.0588 33.83 12.0588 35.1462C12.0588 36.4625 13.1295 37.5366 14.4406 37.5366C15.7517 37.5366 16.8223 36.4625 16.8223 35.1462C16.8223 33.83 15.7534 32.7559 14.4406 32.7559Z" fill="white"></path>
  <path fill-rule="evenodd" clip-rule="evenodd" d="M8.65671 12.3418C7.53244 12.3418 6.61572 13.262 6.61572 14.3914C6.61572 15.5192 7.53244 16.4411 8.65671 16.4411C9.78099 16.4411 10.6977 15.5192 10.6977 14.3914C10.6994 13.262 9.78099 12.3418 8.65671 12.3418Z" fill="white"></path>
  <path fill-rule="evenodd" clip-rule="evenodd" d="M3.21336 30.0332C2.08908 30.0332 1.17236 30.9534 1.17236 32.0828C1.17236 33.2106 2.08908 34.1325 3.21336 34.1325C4.33763 34.1325 5.25435 33.2106 5.25435 32.0828C5.25608 30.9551 4.33763 30.0332 3.21336 30.0332Z" fill="white"></path>
  <path d="M3.21338 32.0835L8.65834 14.3926L14.4406 35.1467L22.4056 24.1634" stroke="white" stroke-width="0.432414" stroke-miterlimit="10"></path>
  <path d="M193.129 30.1849C192.401 30.1849 191.77 29.9168 191.235 29.3824C190.701 28.8479 190.435 28.2166 190.435 27.4884C190.435 26.7602 190.701 26.1237 191.235 25.5789C191.77 25.0323 192.401 24.7607 193.129 24.7607C193.88 24.7607 194.522 25.034 195.056 25.5789C195.591 26.1254 195.857 26.762 195.857 27.4884C195.857 28.2166 195.589 28.8479 195.056 29.3824C194.523 29.9168 193.88 30.1849 193.129 30.1849Z" fill="white"></path>
  <path d="M46.9997 8.69941V27.1182H43.7441V8.69941H46.9997ZM56.4632 27.388C55.0782 27.388 53.882 27.1002 52.8748 26.5246C51.8735 25.943 51.103 25.1216 50.5634 24.0604C50.0238 22.9931 49.754 21.737 49.754 20.2921C49.754 18.8711 50.0238 17.624 50.5634 16.5508C51.109 15.4715 51.8705 14.6321 52.8478 14.0326C53.8251 13.427 54.9733 13.1242 56.2923 13.1242C57.1437 13.1242 57.9471 13.2621 58.7026 13.5379C59.464 13.8077 60.1356 14.2274 60.7171 14.797C61.3047 15.3666 61.7664 16.0921 62.1021 16.9735C62.4379 17.8488 62.6058 18.8921 62.6058 20.1032V21.1015H51.2829V18.9071H59.485C59.479 18.2835 59.3441 17.7289 59.0803 17.2433C58.8165 16.7516 58.4478 16.3649 57.9741 16.0831C57.5064 15.8013 56.9608 15.6604 56.3373 15.6604C55.6718 15.6604 55.0872 15.8223 54.5835 16.1461C54.0799 16.4638 53.6872 16.8835 53.4054 17.4051C53.1296 17.9208 52.9887 18.4874 52.9827 19.1049V21.0205C52.9827 21.824 53.1296 22.5135 53.4234 23.0891C53.7172 23.6587 54.1279 24.0963 54.6555 24.4021C55.1831 24.7019 55.8007 24.8518 56.5082 24.8518C56.9818 24.8518 57.4105 24.7858 57.7942 24.6539C58.178 24.516 58.5107 24.3152 58.7925 24.0514C59.0743 23.7876 59.2872 23.4608 59.4311 23.0711L62.4709 23.4128C62.279 24.2163 61.9133 24.9177 61.3737 25.5173C60.84 26.1109 60.1565 26.5726 59.3231 26.9023C58.4897 27.2261 57.5364 27.388 56.4632 27.388ZM72.2581 13.3041V15.8223H64.3168V13.3041H72.2581ZM66.2774 9.99447H69.533V22.9632C69.533 23.4008 69.599 23.7366 69.7309 23.9704C69.8688 24.1983 70.0487 24.3542 70.2705 24.4381C70.4924 24.522 70.7382 24.564 71.008 24.564C71.2118 24.564 71.3977 24.549 71.5656 24.519C71.7395 24.4891 71.8714 24.4621 71.9613 24.4381L72.5099 26.9833C72.336 27.0432 72.0872 27.1092 71.7634 27.1811C71.4457 27.2531 71.056 27.295 70.5943 27.307C69.7789 27.331 69.0444 27.2081 68.3909 26.9383C67.7373 26.6625 67.2187 26.2368 66.835 25.6612C66.4573 25.0856 66.2714 24.3661 66.2774 23.5028V9.99447ZM85.7012 16.9555L82.7333 17.2792C82.6494 16.9795 82.5025 16.6977 82.2926 16.4338C82.0888 16.17 81.813 15.9572 81.4652 15.7953C81.1175 15.6334 80.6918 15.5525 80.1881 15.5525C79.5106 15.5525 78.941 15.6994 78.4794 15.9932C78.0237 16.287 77.7989 16.6677 77.8048 17.1353C77.7989 17.5371 77.9457 17.8638 78.2455 18.1156C78.5513 18.3675 79.055 18.5743 79.7564 18.7362L82.1128 19.2398C83.4198 19.5216 84.3911 19.9683 85.0267 20.5799C85.6682 21.1914 85.992 21.9918 85.998 22.9811C85.992 23.8505 85.7371 24.618 85.2335 25.2835C84.7359 25.943 84.0434 26.4586 83.156 26.8304C82.2686 27.2021 81.2494 27.388 80.0982 27.388C78.4074 27.388 77.0464 27.0342 76.0151 26.3267C74.9839 25.6132 74.3693 24.621 74.1715 23.3499L77.3462 23.0441C77.4901 23.6676 77.7959 24.1383 78.2635 24.4561C78.7312 24.7738 79.3397 24.9327 80.0892 24.9327C80.8627 24.9327 81.4832 24.7738 81.9509 24.4561C82.4245 24.1383 82.6614 23.7456 82.6614 23.2779C82.6614 22.8822 82.5085 22.5554 82.2027 22.2976C81.9029 22.0398 81.4352 21.842 80.7997 21.7041L78.4434 21.2094C77.1183 20.9336 76.138 20.4689 75.5025 19.8154C74.867 19.1559 74.5522 18.3225 74.5582 17.3152C74.5522 16.4638 74.783 15.7264 75.2507 15.1028C75.7243 14.4733 76.3809 13.9876 77.2203 13.6458C78.0657 13.2981 79.04 13.1242 80.1432 13.1242C81.762 13.1242 83.0361 13.469 83.9654 14.1585C84.9007 14.848 85.4793 15.7803 85.7012 16.9555ZM88.6825 27.1182V13.3041H91.8393V15.6064H91.9832C92.235 14.809 92.6667 14.1945 93.2782 13.7628C93.8958 13.3251 94.6003 13.1062 95.3917 13.1062C95.5716 13.1062 95.7724 13.1152 95.9943 13.1332C96.2221 13.1452 96.411 13.1662 96.5609 13.1962V16.191C96.423 16.1431 96.2041 16.1011 95.9043 16.0651C95.6105 16.0231 95.3258 16.0022 95.05 16.0022C94.4564 16.0022 93.9228 16.1311 93.4491 16.3889C92.9814 16.6407 92.6127 16.9914 92.3429 17.4411C92.0731 17.8908 91.9382 18.4094 91.9382 18.997V27.1182H88.6825ZM104.271 27.388C102.886 27.388 101.689 27.1002 100.682 26.5246C99.6809 25.943 98.9104 25.1216 98.3708 24.0604C97.8312 22.9931 97.5614 21.737 97.5614 20.2921C97.5614 18.8711 97.8312 17.624 98.3708 16.5508C98.9164 15.4715 99.6779 14.6321 100.655 14.0326C101.632 13.427 102.781 13.1242 104.1 13.1242C104.951 13.1242 105.755 13.2621 106.51 13.5379C107.271 13.8077 107.943 14.2274 108.525 14.797C109.112 15.3666 109.574 16.0921 109.91 16.9735C110.245 17.8488 110.413 18.8921 110.413 20.1032V21.1015H99.0903V18.9071H107.292C107.286 18.2835 107.152 17.7289 106.888 17.2433C106.624 16.7516 106.255 16.3649 105.781 16.0831C105.314 15.8013 104.768 15.6604 104.145 15.6604C103.479 15.6604 102.895 15.8223 102.391 16.1461C101.887 16.4638 101.495 16.8835 101.213 17.4051C100.937 17.9208 100.796 18.4874 100.79 19.1049V21.0205C100.79 21.824 100.937 22.5135 101.231 23.0891C101.525 23.6587 101.935 24.0963 102.463 24.4021C102.99 24.7019 103.608 24.8518 104.316 24.8518C104.789 24.8518 105.218 24.7858 105.602 24.6539C105.985 24.516 106.318 24.3152 106.6 24.0514C106.882 23.7876 107.095 23.4608 107.238 23.0711L110.278 23.4128C110.086 24.2163 109.721 24.9177 109.181 25.5173C108.647 26.1109 107.964 26.5726 107.131 26.9023C106.297 27.2261 105.344 27.388 104.271 27.388ZM113.167 27.1182V13.3041H116.279V15.6514H116.441C116.729 14.86 117.206 14.2424 117.871 13.7987C118.537 13.3491 119.331 13.1242 120.254 13.1242C121.19 13.1242 121.978 13.3521 122.62 13.8077C123.267 14.2574 123.723 14.872 123.987 15.6514H124.131C124.436 14.884 124.952 14.2724 125.677 13.8167C126.409 13.3551 127.275 13.1242 128.277 13.1242C129.548 13.1242 130.585 13.5259 131.388 14.3294C132.192 15.1328 132.593 16.3049 132.593 17.8458V27.1182H129.329V18.3495C129.329 17.4921 129.101 16.8655 128.645 16.4698C128.19 16.0681 127.632 15.8673 126.973 15.8673C126.187 15.8673 125.573 16.1131 125.129 16.6047C124.691 17.0904 124.472 17.7229 124.472 18.5024V27.1182H121.28V18.2146C121.28 17.5011 121.064 16.9315 120.632 16.5058C120.206 16.0801 119.649 15.8673 118.959 15.8673C118.492 15.8673 118.066 15.9872 117.682 16.227C117.298 16.4608 116.993 16.7936 116.765 17.2253C116.537 17.651 116.423 18.1486 116.423 18.7182V27.1182H113.167ZM141.922 27.388C140.573 27.388 139.404 27.0912 138.415 26.4976C137.425 25.904 136.658 25.0736 136.112 24.0064C135.573 22.9392 135.303 21.6921 135.303 20.2651C135.303 18.8381 135.573 17.588 136.112 16.5148C136.658 15.4416 137.425 14.6082 138.415 14.0146C139.404 13.421 140.573 13.1242 141.922 13.1242C143.271 13.1242 144.44 13.421 145.429 14.0146C146.419 14.6082 147.183 15.4416 147.723 16.5148C148.268 17.588 148.541 18.8381 148.541 20.2651C148.541 21.6921 148.268 22.9392 147.723 24.0064C147.183 25.0736 146.419 25.904 145.429 26.4976C144.44 27.0912 143.271 27.388 141.922 27.388ZM141.94 24.7798C142.671 24.7798 143.283 24.579 143.775 24.1773C144.266 23.7696 144.632 23.224 144.872 22.5405C145.118 21.8569 145.241 21.0955 145.241 20.2561C145.241 19.4107 145.118 18.6463 144.872 17.9627C144.632 17.2732 144.266 16.7246 143.775 16.3169C143.283 15.9092 142.671 15.7054 141.94 15.7054C141.191 15.7054 140.567 15.9092 140.069 16.3169C139.578 16.7246 139.209 17.2732 138.963 17.9627C138.723 18.6463 138.603 19.4107 138.603 20.2561C138.603 21.0955 138.723 21.8569 138.963 22.5405C139.209 23.224 139.578 23.7696 140.069 24.1773C140.567 24.579 141.191 24.7798 141.94 24.7798ZM158.203 13.3041V15.8223H150.261V13.3041H158.203ZM152.222 9.99447H155.478V22.9632C155.478 23.4008 155.543 23.7366 155.675 23.9704C155.813 24.1983 155.993 24.3542 156.215 24.4381C156.437 24.522 156.683 24.564 156.952 24.564C157.156 24.564 157.342 24.549 157.51 24.519C157.684 24.4891 157.816 24.4621 157.906 24.4381L158.454 26.9833C158.28 27.0432 158.032 27.1092 157.708 27.1811C157.39 27.2531 157 27.295 156.539 27.307C155.723 27.331 154.989 27.2081 154.335 26.9383C153.682 26.6625 153.163 26.2368 152.779 25.6612C152.402 25.0856 152.216 24.3661 152.222 23.5028V9.99447ZM160.925 27.1182V13.3041H164.181V27.1182H160.925ZM162.562 11.3435C162.047 11.3435 161.603 11.1726 161.231 10.8309C160.859 10.4831 160.674 10.0664 160.674 9.58077C160.674 9.08913 160.859 8.67242 161.231 8.33067C161.603 7.98292 162.047 7.80905 162.562 7.80905C163.084 7.80905 163.527 7.98292 163.893 8.33067C164.265 8.67242 164.451 9.08913 164.451 9.58077C164.451 10.0664 164.265 10.4831 163.893 10.8309C163.527 11.1726 163.084 11.3435 162.562 11.3435ZM174.526 13.3041V15.8223H166.36V13.3041H174.526ZM168.401 27.1182V12C168.401 11.0707 168.593 10.2973 168.977 9.6797C169.367 9.06214 169.888 8.60048 170.542 8.2947C171.195 7.98892 171.921 7.83603 172.718 7.83603C173.282 7.83603 173.782 7.88099 174.22 7.97093C174.658 8.06086 174.981 8.14181 175.191 8.21375L174.544 10.7319C174.406 10.69 174.232 10.648 174.022 10.606C173.812 10.5581 173.578 10.5341 173.321 10.5341C172.715 10.5341 172.286 10.681 172.035 10.9748C171.789 11.2626 171.666 11.6763 171.666 12.2159V27.1182H168.401ZM179.099 32.2984C178.655 32.2984 178.245 32.2625 177.867 32.1905C177.495 32.1246 177.198 32.0466 176.977 31.9567L177.732 29.4205C178.206 29.5584 178.628 29.6244 179 29.6184C179.372 29.6124 179.699 29.4955 179.98 29.2676C180.268 29.0458 180.511 28.674 180.709 28.1524L180.988 27.406L175.978 13.3041H179.432L182.615 23.7366H182.759L185.952 13.3041H189.415L183.884 28.791C183.626 29.5224 183.284 30.149 182.858 30.6706C182.433 31.1982 181.911 31.5999 181.293 31.8757C180.682 32.1575 179.95 32.2984 179.099 32.2984Z" fill="white"></path>
</svg>
