<?xml version="1.0" encoding="UTF-8"?>
<svg xmlns="http://www.w3.org/2000/svg" width="65" height="65" viewBox="0 0 65 65" fill="none">
  <path d="M21.8994 41.2275L43.418 41.4557L40.7048 46.7936V52.1772H24.3319V46.7936L21.8994 41.2275Z" fill="#FEC02F"></path>
  <circle cx="32.5635" cy="30.5635" r="15.0439" fill="#FEC02F"></circle>
  <path d="M32.0557 0.152501C31.4971 0.469884 31.4971 0.53336 31.4844 4.51969C31.4844 8.13785 31.4971 8.34098 31.7383 8.59488C31.8652 8.74723 32.1064 8.89957 32.2461 8.95035C32.627 9.07731 33.1982 8.79801 33.376 8.42985C33.4648 8.21403 33.5156 6.89371 33.5156 4.43082V0.736485L33.1475 0.368321C32.7539 -0.0252333 32.4619 -0.0760145 32.0557 0.152501Z" fill="#FEC02F"></path>
  <path d="M15.8057 5.01443C15.4502 5.3699 15.4121 5.69998 15.6787 6.20779C16.1231 7.07107 19.3477 12.0222 19.627 12.2761C20.2744 12.8601 21.2012 12.4285 21.2012 11.5652C21.2012 11.159 20.8965 10.6004 19.3604 8.17556C18.3447 6.57595 17.3672 5.14138 17.1895 4.97635C16.7705 4.60818 16.1992 4.60818 15.8057 5.01443Z" fill="#FEC02F"></path>
  <path d="M48.585 5.04004C48.293 5.11621 44.0527 11.4639 44.0527 11.8193C44.0527 12.1494 44.7129 12.8223 45.0303 12.8223C45.1572 12.8223 45.3984 12.7334 45.5635 12.6191C45.9951 12.3145 49.8926 6.39844 49.8926 6.03027C49.8926 5.56055 49.7656 5.33203 49.3721 5.1416C49.0039 4.95117 48.9658 4.93848 48.585 5.04004Z" fill="#FEC02F"></path>
  <path d="M31.7383 14.0537C29.3643 14.168 27.2442 14.752 24.959 15.9072C21.6455 17.5957 19.0684 20.249 17.4434 23.6768C15.3106 28.1709 15.3613 33.5156 17.5703 38.0479C18.3955 39.7363 19.2461 40.9424 20.7568 42.5293C21.4805 43.3037 22.2422 44.2305 22.4453 44.5986C23.2578 46.0078 23.7276 47.9756 23.8291 50.4004C23.9053 51.9492 23.9307 52.127 24.1973 52.3936L24.4893 52.6855H32.5381H40.5869L40.8789 52.3682C41.1328 52.0889 41.1836 51.9111 41.2217 50.8193C41.3106 48.2168 41.8311 45.8809 42.6182 44.5352C42.8213 44.2051 43.5957 43.2656 44.3574 42.4404C45.9697 40.6885 46.7822 39.5332 47.6201 37.7812C48.9531 34.9756 49.4863 31.7891 49.1309 28.8184C48.9024 26.9395 48.2041 24.6416 47.4043 23.0674C46.9854 22.2676 45.8428 20.6172 45.0938 19.7539C42.3643 16.6182 38.1748 14.4473 34.2774 14.1553C33.7568 14.1172 33.1221 14.0664 32.8809 14.0537C32.6397 14.0283 32.1192 14.0283 31.7383 14.0537ZM34.7471 16.1865C37.7686 16.6816 40.3838 17.9639 42.5801 20.0586C44.4336 21.8232 45.6524 23.7529 46.3887 26.0635C46.96 27.8408 47.1123 28.8438 47.1123 30.71C47.0996 34.6328 45.6524 38.251 42.999 40.917C41.4121 42.5166 40.7393 43.5449 40.0664 45.4492C39.6729 46.5156 39.2285 48.9531 39.2285 49.9688V50.6543H32.5762H25.9238L25.8477 50.3623C25.8096 50.21 25.7715 49.8164 25.7715 49.499C25.7715 48.585 25.416 46.7695 24.9971 45.5127C24.4131 43.7734 23.7402 42.6943 22.1279 40.9805C20.5664 39.3174 19.7666 38.1494 19.043 36.4609C15.958 29.2881 19.0176 20.96 26 17.5322C27.5234 16.7832 28.7676 16.415 30.8496 16.085C31.624 15.958 33.6807 16.0088 34.7471 16.1865Z" fill="white"></path>
  <path d="M32.0557 18.4213C31.4082 18.8149 31.3067 19.4623 31.8018 19.9575C32.0684 20.2368 32.2715 20.2875 33.2364 20.351C37.1211 20.6303 40.5869 22.979 42.2754 26.4702C42.9864 27.9301 43.2657 28.895 43.3672 30.3041C43.4434 31.434 43.6084 31.9545 43.9385 32.1196C44.3321 32.3354 44.8145 32.2592 45.1319 31.9291C45.4112 31.6625 45.4492 31.5102 45.4492 30.7866C45.4492 30.3168 45.335 29.352 45.1826 28.6538C44.2178 23.8422 40.4981 19.9194 35.7754 18.726C34.2774 18.3579 32.4239 18.2055 32.0557 18.4213Z" fill="white"></path>
  <path d="M6.18262 15.6279C5.44629 15.8311 5.20508 16.7324 5.75098 17.2275C6.29687 17.7227 12.1875 20.8203 12.5684 20.8203C13.3428 20.8203 13.7617 19.8047 13.2412 19.1953C13.0254 18.9541 7.47754 15.8691 6.83008 15.6279C6.66504 15.5771 6.37305 15.5771 6.18262 15.6279Z" fill="#FEC02F"></path>
  <path d="M58.2715 15.5771C57.7256 15.793 51.9492 18.9668 51.7461 19.1699C51.1494 19.7539 51.6064 20.8203 52.4189 20.8203C52.7871 20.8203 58.7539 17.6846 59.2617 17.2275C59.6172 16.8975 59.6426 16.2246 59.2871 15.8691C59.1475 15.7295 58.9824 15.6152 58.9189 15.6152C58.8555 15.6152 58.7285 15.5898 58.6269 15.5645C58.5381 15.5264 58.373 15.5391 58.2715 15.5771Z" fill="#FEC02F"></path>
  <path d="M25.3779 53.9424C24.21 54.1836 23.3594 55.1865 23.3594 56.3418C23.3594 57.459 23.8291 58.208 24.8193 58.665C25.2891 58.8809 25.7842 58.9062 32.3857 58.9062C37.3369 58.9062 39.5713 58.8682 39.876 58.7666C42.0215 58.043 42.2627 55.1611 40.2568 54.1836L39.6728 53.8916L32.7539 53.8662C28.9453 53.8662 25.6318 53.8916 25.3779 53.9424ZM39.457 56.0117C39.6855 56.2402 39.6348 56.5957 39.3682 56.748C39.2031 56.8242 36.8164 56.875 32.5 56.875C28.1836 56.875 25.7969 56.8242 25.6318 56.748C25.4033 56.6211 25.3018 56.1133 25.4795 55.9482C25.5176 55.8975 28.6533 55.8594 32.4365 55.8594C37.6035 55.8594 39.3428 55.8975 39.457 56.0117Z" fill="white"></path>
  <path d="M27.2314 60.0361C26.6601 60.1758 26.3554 60.3789 25.9238 60.8613C24.8574 62.0801 25.2256 63.9463 26.6855 64.6699L27.3457 65H32.4619C38.0478 65 38.124 64.9873 38.8857 64.2637C39.4316 63.7432 39.6474 63.2354 39.6474 62.4609C39.6474 61.6865 39.4316 61.166 38.8857 60.6709C38.1367 59.9727 38.2763 59.9854 32.7539 59.96C29.9228 59.9473 27.4472 59.9854 27.2314 60.0361ZM37.5908 62.2324C37.7177 62.4609 37.6924 62.5371 37.4511 62.7402C37.1845 62.9561 36.8291 62.9688 32.5761 62.9688C30.0625 62.9688 27.8662 62.9307 27.7138 62.8926C27.3711 62.8037 27.2187 62.3848 27.4218 62.1436C27.5615 61.9785 28.3613 61.9531 32.5127 61.9531H37.4384L37.5908 62.2324Z" fill="white"></path>
</svg>
