<?xml version="1.0" encoding="UTF-8"?>
<svg xmlns="http://www.w3.org/2000/svg" width="154" height="38" viewBox="0 0 154 38" fill="none">
  <path d="M40.3383 13.4385H55.8802V16.3551H49.7692V32.7509H46.4088V16.3551H40.3248V13.4385H40.3383ZM55.2163 18.7674H58.0889V21.466H58.1431C58.2379 21.0844 58.4141 20.7164 58.6716 20.362C58.929 20.0077 59.2407 19.667 59.6065 19.3808C59.9724 19.0809 60.3789 18.8492 60.826 18.6584C61.2732 18.4812 61.7339 18.3858 62.1946 18.3858C62.5469 18.3858 62.8043 18.3995 62.9398 18.4131C63.0753 18.4267 63.2108 18.454 63.3599 18.4676V21.4387C63.1431 21.3979 62.9263 21.3706 62.6959 21.3433C62.4656 21.3161 62.2488 21.3025 62.032 21.3025C61.5171 21.3025 61.0293 21.4115 60.5686 21.6159C60.1079 21.8204 59.7149 22.1338 59.3762 22.5291C59.0374 22.9379 58.7664 23.4286 58.5632 24.0283C58.3599 24.6279 58.265 25.3094 58.265 26.0863V32.7372H55.2027V18.7674H55.2163ZM77.4384 32.7509H74.4302V30.8019H74.376C73.9966 31.5106 73.4411 32.0694 72.6958 32.4919C71.9506 32.9144 71.1918 33.1325 70.4194 33.1325C68.5902 33.1325 67.2623 32.6827 66.4493 31.7696C65.6363 30.8564 65.2298 29.4799 65.2298 27.64V18.7674H68.2921V27.3401C68.2921 28.5667 68.5224 29.439 68.9967 29.9433C69.4574 30.4476 70.1213 30.7065 70.9614 30.7065C71.6118 30.7065 72.1403 30.6111 72.5739 30.4067C73.0075 30.2022 73.3598 29.9433 73.6172 29.6026C73.8882 29.2755 74.0779 28.8666 74.1999 28.4032C74.3218 27.9398 74.376 27.4355 74.376 26.8904V18.7811H77.4384V32.7509ZM82.6551 28.2669C82.75 29.1664 83.0887 29.7934 83.6714 30.1613C84.2676 30.5157 84.9722 30.7065 85.7987 30.7065C86.0833 30.7065 86.4085 30.6793 86.7743 30.6384C87.1402 30.5975 87.4925 30.5021 87.8041 30.3794C88.1293 30.2568 88.3868 30.0659 88.6036 29.8206C88.8068 29.5753 88.9017 29.2618 88.8881 28.8666C88.8746 28.4713 88.7255 28.1442 88.4545 27.8989C88.1835 27.64 87.8448 27.4492 87.4247 27.2856C87.0047 27.1357 86.5304 26.9994 85.9884 26.8904C85.4464 26.7813 84.9044 26.6587 84.3489 26.536C83.7798 26.4134 83.2242 26.2498 82.6958 26.0726C82.1673 25.8954 81.6931 25.6501 81.273 25.3367C80.853 25.0368 80.5142 24.6416 80.2703 24.1646C80.0129 23.6875 79.8909 23.1015 79.8909 22.3928C79.8909 21.6295 80.0806 21.0026 80.4465 20.4847C80.8123 19.9668 81.2866 19.5579 81.8421 19.2445C82.4112 18.931 83.0345 18.7129 83.7256 18.5766C84.4166 18.454 85.0806 18.3858 85.7039 18.3858C86.422 18.3858 87.1131 18.4676 87.7635 18.6175C88.4139 18.7674 89.0101 19.0128 89.5385 19.3671C90.067 19.7078 90.5006 20.1576 90.8529 20.7028C91.2052 21.2479 91.422 21.9158 91.5168 22.6926H88.319C88.17 21.9566 87.8448 21.4524 87.3163 21.207C86.7879 20.9481 86.1781 20.8254 85.5006 20.8254C85.2838 20.8254 85.0264 20.8391 84.7283 20.8799C84.4302 20.9208 84.1592 20.989 83.8882 21.0844C83.6307 21.1798 83.4139 21.3297 83.2242 21.5205C83.0481 21.7113 82.9532 21.9566 82.9532 22.2701C82.9532 22.6517 83.0887 22.9516 83.3462 23.1833C83.6036 23.415 83.9424 23.6058 84.3624 23.7693C84.7825 23.9192 85.2567 24.0555 85.7987 24.1646C86.3407 24.2736 86.8963 24.3962 87.4654 24.5189C88.0209 24.6416 88.5629 24.8051 89.1049 24.9823C89.6469 25.1595 90.1212 25.4048 90.5412 25.7183C90.9613 26.0317 91.3 26.4134 91.5575 26.8767C91.8149 27.3401 91.9505 27.9262 91.9505 28.6076C91.9505 29.439 91.7607 30.1341 91.3813 30.7201C91.0019 31.2926 90.5141 31.7696 89.9179 32.1239C89.3217 32.4783 88.6442 32.7509 87.9125 32.9144C87.1808 33.078 86.4491 33.1597 85.731 33.1597C84.8502 33.1597 84.0372 33.0643 83.292 32.8599C82.5467 32.6555 81.8963 32.3556 81.3543 31.9604C80.8123 31.5515 80.3787 31.0472 80.0671 30.4476C79.7554 29.8479 79.5928 29.1255 79.5657 28.2942H82.6551V28.2669ZM92.7634 18.7674H95.0805V14.5697H98.1428V18.7674H100.907V21.0708H98.1428V28.5395C98.1428 28.8666 98.1564 29.1392 98.1835 29.3845C98.2106 29.6162 98.2783 29.8206 98.3732 29.9842C98.468 30.1477 98.6171 30.2704 98.8203 30.3522C99.0236 30.4339 99.281 30.4748 99.6333 30.4748C99.8501 30.4748 100.067 30.4748 100.284 30.4612C100.501 30.4476 100.717 30.4203 100.934 30.3658V32.7509C100.595 32.7918 100.257 32.819 99.945 32.8599C99.6198 32.9008 99.2946 32.9144 98.9558 32.9144C98.1428 32.9144 97.4924 32.8326 97.0046 32.6827C96.5168 32.5328 96.1239 32.3011 95.8529 32.0013C95.5683 31.7014 95.3922 31.3334 95.2838 30.8837C95.1889 30.4339 95.1212 29.916 95.1076 29.3436V21.098H92.7906V18.7674H92.7634ZM103.075 18.7674H105.975V20.6619H106.029C106.463 19.8441 107.059 19.2717 107.831 18.9174C108.603 18.563 109.43 18.3858 110.338 18.3858C111.435 18.3858 112.384 18.5766 113.197 18.9719C114.01 19.3535 114.687 19.885 115.229 20.5665C115.771 21.2479 116.164 22.0384 116.435 22.9379C116.706 23.8375 116.842 24.8051 116.842 25.8273C116.842 26.7677 116.72 27.6809 116.476 28.5531C116.232 29.439 115.866 30.2159 115.378 30.8973C114.891 31.5788 114.267 32.1103 113.509 32.5192C112.75 32.928 111.869 33.1325 110.839 33.1325C110.392 33.1325 109.945 33.0916 109.498 33.0098C109.051 32.928 108.617 32.7918 108.21 32.6146C107.804 32.4374 107.411 32.2057 107.072 31.9195C106.72 31.6333 106.435 31.3062 106.192 30.9382H106.137V37.9163H103.075V18.7674ZM113.78 25.7728C113.78 25.1458 113.698 24.5325 113.536 23.9329C113.373 23.3332 113.129 22.8153 112.804 22.3519C112.479 21.8885 112.072 21.5205 111.598 21.2479C111.11 20.9754 110.555 20.8254 109.931 20.8254C108.644 20.8254 107.668 21.2752 107.018 22.1747C106.368 23.0742 106.042 24.2736 106.042 25.7728C106.042 26.4815 106.124 27.1357 106.3 27.7354C106.476 28.3351 106.72 28.853 107.072 29.2891C107.411 29.7252 107.818 30.0659 108.292 30.3113C108.766 30.5702 109.322 30.6929 109.945 30.6929C110.649 30.6929 111.232 30.543 111.72 30.2568C112.208 29.9705 112.601 29.5889 112.912 29.1392C113.224 28.6758 113.454 28.1579 113.59 27.5718C113.712 26.9858 113.78 26.3861 113.78 25.7728ZM119.186 13.4385H122.248V16.3551H119.186V13.4385ZM119.186 18.7674H122.248V32.7509H119.186V18.7674ZM124.985 13.4385H128.048V32.7509H124.985V13.4385ZM137.438 33.1325C136.327 33.1325 135.338 32.9417 134.47 32.5737C133.603 32.2057 132.872 31.6878 132.262 31.0472C131.666 30.393 131.205 29.6162 130.893 28.7167C130.582 27.8171 130.419 26.8222 130.419 25.7455C130.419 24.6825 130.582 23.7012 130.893 22.8016C131.205 21.9021 131.666 21.1253 132.262 20.4711C132.858 19.8169 133.603 19.3126 134.47 18.9446C135.338 18.5766 136.327 18.3858 137.438 18.3858C138.549 18.3858 139.538 18.5766 140.405 18.9446C141.273 19.3126 142.004 19.8305 142.614 20.4711C143.21 21.1253 143.671 21.9021 143.983 22.8016C144.294 23.7012 144.457 24.6825 144.457 25.7455C144.457 26.8222 144.294 27.8171 143.983 28.7167C143.671 29.6162 143.21 30.393 142.614 31.0472C142.018 31.7014 141.273 32.2057 140.405 32.5737C139.538 32.9417 138.549 33.1325 137.438 33.1325ZM137.438 30.6929C138.115 30.6929 138.712 30.543 139.213 30.2568C139.714 29.9705 140.121 29.5889 140.446 29.1255C140.771 28.6621 141.002 28.1306 141.164 27.5446C141.313 26.9585 141.395 26.3588 141.395 25.7455C141.395 25.1458 141.313 24.5598 141.164 23.9601C141.015 23.3604 140.771 22.8425 140.446 22.3791C140.121 21.9158 139.714 21.5478 139.213 21.2616C138.712 20.9754 138.115 20.8254 137.438 20.8254C136.76 20.8254 136.164 20.9754 135.663 21.2616C135.162 21.5478 134.755 21.9294 134.43 22.3791C134.105 22.8425 133.874 23.3604 133.712 23.9601C133.563 24.5598 133.481 25.1458 133.481 25.7455C133.481 26.3588 133.563 26.9585 133.712 27.5446C133.861 28.1306 134.105 28.6621 134.43 29.1255C134.755 29.5889 135.162 29.9705 135.663 30.2568C136.164 30.5566 136.76 30.6929 137.438 30.6929ZM145.351 18.7674H147.668V14.5697H150.731V18.7674H153.495V21.0708H150.731V28.5395C150.731 28.8666 150.744 29.1392 150.771 29.3845C150.798 29.6162 150.866 29.8206 150.961 29.9842C151.056 30.1477 151.205 30.2704 151.408 30.3522C151.611 30.4339 151.869 30.4748 152.221 30.4748C152.438 30.4748 152.655 30.4748 152.871 30.4612C153.088 30.4476 153.305 30.4203 153.522 30.3658V32.7509C153.183 32.7918 152.844 32.819 152.533 32.8599C152.207 32.9008 151.882 32.9144 151.544 32.9144C150.731 32.9144 150.08 32.8326 149.592 32.6827C149.105 32.5328 148.712 32.3011 148.441 32.0013C148.156 31.7014 147.98 31.3334 147.871 30.8837C147.777 30.4339 147.709 29.916 147.695 29.3436V21.098H145.378V18.7674H145.351Z" fill="black"></path>
  <path d="M36.7613 13.4383H22.7234L18.3874 0L14.0378 13.4383L0 13.4246L11.3685 21.7384L7.01892 35.163L18.3874 26.8629L29.7423 35.163L25.4063 21.7384L36.7613 13.4383Z" fill="#00B67A"></path>
  <path d="M26.3819 24.7776L25.4062 21.7383L18.3873 26.8628L26.3819 24.7776Z" fill="#005128"></path>
</svg>
