<?xml version="1.0" encoding="UTF-8"?>
<svg xmlns="http://www.w3.org/2000/svg" width="25" height="21" viewBox="0 0 25 21" fill="none">
  <path d="M0 13.9091C0 18.1023 2.52614 20.4545 5.36625 20.4545C7.89136 20.4545 9.78443 18.4091 9.78443 16.0568C9.78443 13.6023 7.9967 11.7614 5.57693 11.7614C5.26091 11.7614 4.52352 11.8636 4.4192 11.9659C4.62989 8.69318 7.26034 4.70455 10.6272 2.45455L7.47102 0C3.47216 2.86364 0 8.18182 0 13.9091ZM14.942 13.9091C14.942 18.1023 17.3608 20.4545 20.2019 20.4545C22.8324 20.4545 24.7265 18.4091 24.7265 16.0568C24.7265 13.6023 22.9377 11.7614 20.518 11.7614C20.0966 11.7614 19.4645 11.8636 19.3602 11.9659C19.5709 8.69318 22.2014 4.70455 25.5682 2.45455L22.412 0C18.3078 2.86364 14.942 8.18182 14.942 13.9091Z" fill="#912CC6"></path>
</svg>
