<?xml version="1.0" encoding="UTF-8"?>
<svg xmlns="http://www.w3.org/2000/svg" width="74" height="64" viewBox="0 0 74 64" fill="none">
  <path d="M73.25 51.5V54.4486L45.9878 62.968L21.7013 56.2025L20.75 55.9375V56.925V61.25H1.25V24.25H28.1904L49.7641 32.2532L49.7687 32.2548C51.5407 32.8992 52.9768 34.0227 54.0886 35.6479C55.199 37.2745 55.75 39.0523 55.75 41V41.75H56.5H63.5C66.2337 41.75 68.5265 42.645 70.423 44.4332C72.2952 46.1984 73.25 48.5287 73.25 51.5ZM6.75 55V55.75H7.5H14.5H15.25V55V30.5V29.75H14.5H7.5H6.75V30.5V55ZM45.6272 57.1235L45.8385 57.1812L46.0477 57.1162L66.8727 50.6412L67.5641 50.4262L67.3736 49.7277C67.1412 48.8758 66.6048 48.2296 65.8155 47.8154L65.8145 47.8149C65.0943 47.4383 64.3192 47.25 63.5 47.25H46.7C44.9229 47.25 43.3301 47.1353 41.9185 46.9094C40.5111 46.6842 38.979 46.2882 37.3204 45.7163C37.3201 45.7162 37.3198 45.7161 37.3195 45.716L31.9639 43.8532L33.5461 38.6249L39.8128 40.6615C39.8138 40.6618 39.8147 40.6622 39.8157 40.6625C40.9226 41.0312 42.1969 41.3023 43.632 41.4817C45.0773 41.6624 47.0379 41.75 49.5 41.75H50.25V41C50.25 40.2015 50.0123 39.4489 49.5624 38.7546L49.5613 38.7529C49.1152 38.0687 48.5418 37.5601 47.8238 37.3174L27.3587 29.796L27.2335 29.75H27.1H21.5H20.75V30.5V49.75V50.3225L21.3022 50.4735L45.6272 57.1235Z" fill="black" stroke="#FAFAFA" stroke-width="1.5"></path>
  <path d="M35.4879 14.3617L38.6167 11.1406L45.0823 17.7971L45.3333 18.0555L45.5844 17.7971L62.3833 0.502333L65.5121 3.7234L45.3333 24.4977L35.4879 14.3617Z" fill="#912CC6" stroke="#FAFAFA" stroke-width="0.7"></path>
</svg>
