<?xml version="1.0" encoding="UTF-8"?>
<svg xmlns="http://www.w3.org/2000/svg" width="80" height="80" viewBox="0 0 80 80" fill="none">
  <path d="M19.4219 1.625C18.625 2 17.7969 2.90625 17.5625 3.65625C17.5 3.82812 16.8906 10.3438 16.1875 18.125L14.9219 32.2656L10.7812 32.3438C7.26562 32.4062 6.5625 32.4688 6.15625 32.6875C5.54688 33.0156 4.875 33.7969 4.71875 34.3438C4.65625 34.5781 4.60938 42.4688 4.60938 51.875V68.9844L5.0625 69.9688C5.79688 71.5625 7.04688 72.4375 9.375 73C9.85938 73.125 15.7812 73.2031 28.2812 73.2344L46.4844 73.2969L47.7656 74.5625C48.9531 75.75 49.0781 75.8281 49.8281 75.9062C50.8125 76 51.2656 75.875 51.8438 75.3906L52.2969 75.0156L53.2188 75.3906C54.0781 75.7344 54.1406 75.7969 54.25 76.3906C54.3906 77.2656 54.75 77.8906 55.3438 78.3125C55.8438 78.6562 55.9688 78.6719 58.7812 78.6719C61.4844 78.6719 61.7344 78.6406 62.125 78.3438C62.8125 77.8438 63.1562 77.2812 63.2344 76.5156C63.3125 75.8281 63.3281 75.8125 64.2656 75.4375L65.2344 75.0312L65.7188 75.4219C66.4531 75.9688 67.2031 76.1406 68 75.9219C68.5312 75.7812 69.0312 75.3906 70.4219 74.0156C72.3125 72.1562 72.6562 71.6406 72.6562 70.625C72.6562 69.9375 72.4844 69.5 72 68.9531C71.6875 68.625 71.6875 68.6094 72.0781 67.625C72.4844 66.6406 72.4844 66.6406 73.1875 66.5625C74.0938 66.4531 74.6719 66.0312 75.125 65.1562C75.4375 64.5312 75.4688 64.25 75.4688 62.1094C75.4688 59.9688 75.4375 59.6875 75.125 59.0625C74.6719 58.1875 74.0938 57.7656 73.1875 57.6562C72.4844 57.5781 72.4844 57.5781 72.0781 56.5938C71.6875 55.6094 71.6875 55.5938 72 55.2656C72.4844 54.7188 72.6562 54.2812 72.6562 53.5938C72.6562 52.7188 72.3281 52.0781 71.4062 51.1719L70.625 50.4062V43.1094C70.625 35.5625 70.5938 35.2344 69.9531 34.3594C69.3594 33.5312 68.5156 33.2188 66.7656 33.1562C65.2656 33.0938 65.1562 33.0625 65.1562 32.7656C65.1562 32.5938 65.5781 27.7344 66.0938 21.9844C66.8906 13.2188 67.0156 11.4375 66.8594 10.9531C66.7188 10.5625 65.8594 9.57812 63.9219 7.625L61.1719 4.85938L60.3125 4.76562C59.8438 4.71875 53.5469 4.15625 46.3281 3.51562C39.1094 2.85938 30.9219 2.125 28.125 1.875C20.1719 1.15625 20.375 1.17188 19.4219 1.625ZM38.4219 5.3125C48.0156 6.17188 56.1719 6.90625 56.5469 6.96875L57.2344 7.0625L57.125 7.85938C57.0781 8.3125 56.9844 9.51562 56.9375 10.5469C56.8594 12.25 56.875 12.4688 57.1719 12.9219C57.7031 13.7656 58.25 13.9375 61.2969 14.2188C62.8281 14.375 64.1094 14.5312 64.1562 14.5781C64.2031 14.625 63.8906 18.6562 63.4531 23.5469C63.0156 28.4219 62.6562 32.5781 62.6562 32.7656V33.125H54.1875C45.8594 33.125 45.7188 33.125 45.0312 33.4531C44.2188 33.8594 44.0781 34.0625 41.4844 38.7031L39.625 42.0312H28.0938H16.5469L16.6406 40.9688C16.7031 40.3906 17.4531 31.9219 18.3438 22.1562C19.75 6.34375 19.9688 4.35938 20.2188 4.07812C20.3906 3.89062 20.625 3.75 20.75 3.75C20.8906 3.75 28.8438 4.45312 38.4219 5.3125ZM62.3281 9.53125C63.5625 10.8281 64.5469 11.9219 64.5 11.9531C64.4688 11.9844 63.4219 11.9062 62.1875 11.7969C60.9375 11.6719 59.7969 11.5625 59.625 11.5625C59.3594 11.5625 59.3438 11.4688 59.4375 10.1875C59.625 7.84375 59.7188 7.1875 59.9062 7.1875C60 7.1875 61.0938 8.25 62.3281 9.53125ZM14.6094 35.7344C14.4531 37.375 14.0625 41.6406 14.0625 41.8281C14.0625 41.9688 13.8125 42.0312 13.3594 42.0312C12.0156 42.0312 10.9688 42.7969 10.625 44.0312C10.5312 44.4062 10.4688 49.1562 10.4688 57.6406V70.6562L9.89062 70.5469C8.21875 70.25 7.26562 69.4062 7.10938 68.0938C6.96875 66.9062 7.07812 35.2812 7.23438 35.0312C7.32812 34.8906 8.26562 34.8438 11.0312 34.8438H14.7031L14.6094 35.7344ZM67.8281 35.7812C68.1094 35.9375 68.125 36.1719 68.125 42.1094V48.2812H67.2969C66.6094 48.2812 66.3281 48.375 65.8125 48.75L65.1719 49.2031L64.25 48.7969C63.3438 48.4062 63.3125 48.3906 63.2344 47.7031C63.1562 46.9375 62.8125 46.375 62.125 45.875C61.7344 45.5781 61.4375 45.5469 59.0625 45.5C56.7031 45.4531 56.3438 45.4844 55.7188 45.75C54.9062 46.125 54.5469 46.6094 54.2969 47.6875C54.125 48.4531 54.1094 48.4844 53.2031 48.8438C52.3125 49.2188 52.2812 49.2188 51.9688 48.9219C51.1875 48.2188 49.9844 48.0312 49.125 48.4844C48.875 48.625 47.8594 49.5625 46.8438 50.5781C45.3594 52.0781 45.0156 52.5312 44.9219 53.0156C44.7812 53.75 45.0312 54.6719 45.5312 55.2656L45.8906 55.7031L45.4688 56.6562C45.0469 57.5938 45.0156 57.6094 44.3281 57.6875C43.9375 57.7344 43.4062 57.9219 43.1562 58.0938C42.3125 58.7031 42.1875 59.2188 42.1875 62.1406C42.1875 64.4062 42.2344 64.8438 42.4844 65.3125C42.875 66.0469 43.6562 66.5625 44.3906 66.5625C44.9844 66.5625 45.0156 66.5938 45.4375 67.5312L45.875 68.5156L45.4375 69.125C45.2031 69.4531 44.9688 69.9688 44.9062 70.25L44.8125 70.7812H28.8906H12.9688L13 57.6875L13.0469 44.6094L26.9844 44.5312C40.6719 44.4531 40.9375 44.4531 41.2188 44.1406C41.3906 43.9688 42.4062 42.2031 43.5156 40.2344C44.6094 38.25 45.6406 36.4062 45.8125 36.125L46.125 35.625H56.8125C63.8906 35.625 67.625 35.6875 67.8281 35.7812ZM60.7812 48.7656C60.7812 49.5469 60.9688 50.125 61.3125 50.3438C61.4062 50.4062 61.8438 50.5781 62.2656 50.7188C62.7031 50.8594 63.5312 51.2188 64.1094 51.5C64.6875 51.7969 65.3438 52.0312 65.5625 52.0312C65.7969 52.0312 66.2188 51.7812 66.6562 51.375L67.3594 50.7188L68.75 52.1094L70.1406 53.4844L69.5156 54.1875C68.7656 55.0469 68.75 55.4688 69.3594 56.7031C69.625 57.2031 69.9688 58.0781 70.1562 58.6562C70.5625 59.875 70.9375 60.1562 72.1875 60.1562H72.9688V62.1094V64.0625H72.2812C71.2656 64.0625 70.6875 64.3281 70.4062 64.9219C70.2656 65.2031 70.1562 65.5156 70.1562 65.625C70.1562 65.7344 69.875 66.4062 69.5312 67.1406C68.7188 68.8906 68.7188 69.25 69.5625 70.0312L70.2188 70.6406L68.7969 72.0625L67.3594 73.5L66.6562 72.8438C65.8438 72.0938 65.3906 72.0156 64.6094 72.5C64.3438 72.6719 63.625 72.9844 63.0312 73.2031C61.2031 73.875 61.1406 73.9219 60.9531 74.3125C60.8594 74.5312 60.7812 75.0469 60.7812 75.4688V76.25H58.75H56.7188V75.3438C56.7188 74.2344 56.4844 73.8594 55.5938 73.6094C55.2188 73.5 54.3125 73.125 53.5625 72.7812C52 72.0469 51.6719 72.0625 50.9062 72.8906C50.6406 73.1875 50.3438 73.4375 50.25 73.4375C50.1562 73.4375 49.4531 72.8125 48.7031 72.0625L47.3438 70.6875L47.9531 70.0938C48.8281 69.2344 48.8594 68.9375 48.2188 67.6094C47.9375 66.9844 47.5625 66.0781 47.4062 65.5781C47.0312 64.3438 46.75 64.1406 45.6094 64.1719L44.6875 64.1875V62.1875V60.1875L45.625 60.125C46.7188 60.0469 47.0625 59.7969 47.3281 58.8594C47.4375 58.5 47.8125 57.5938 48.1562 56.8438C48.8594 55.2656 48.8438 55.0625 47.9531 54.1406L47.3438 53.5L48.7344 52.125L50.125 50.7344L50.875 51.375C51.2812 51.7344 51.7656 52.0312 51.9531 52.0312C52.1406 52.0312 52.8906 51.75 53.6094 51.4219C54.3281 51.0781 55.2188 50.7344 55.5781 50.6406C56.4531 50.4062 56.7188 49.9844 56.7188 48.875V47.9688H58.75H60.7812V48.7656Z" fill="black"></path>
  <path d="M26.7969 16.1094C26 16.5625 25.8438 17.5156 26.4688 18.1094C26.8125 18.4375 27.4375 18.5156 40.5469 19.6875C52.6875 20.7812 54.3281 20.8906 54.7031 20.7031C55.4062 20.3281 55.5312 19.4844 54.9687 18.8437C54.5625 18.3906 56.2187 18.5625 37.1875 16.875C32.3281 16.4531 28.0781 16.0625 27.7344 16.0156C27.3906 15.9844 26.9688 16.0156 26.7969 16.1094Z" fill="#912CC6"></path>
  <path d="M25.875 23.4532C25.3281 23.8907 25.3125 24.7032 25.8594 25.2344C26.0625 25.4532 26.3281 25.625 26.4375 25.625C26.5469 25.625 32.7188 26.1563 40.1406 26.8282C52.3125 27.9063 53.6719 28 54.0469 27.7969C54.8438 27.3438 54.8907 26.125 54.0938 25.7344C53.8594 25.6094 53.1875 25.4688 52.5782 25.4219C45.9531 24.8282 43.0938 24.5782 35.6406 23.9063C30.875 23.4688 26.8281 23.125 26.6406 23.125C26.4531 23.125 26.1094 23.2657 25.875 23.4532Z" fill="#912CC6"></path>
  <path d="M56.25 54.4219C52.4844 55.7031 50.125 59.5781 50.7656 63.3906C51.2813 66.375 53.5313 68.9687 56.3906 69.8593C57.8281 70.2968 59.9219 70.2968 61.2656 69.8437C64.6094 68.7187 66.875 65.6093 66.875 62.1406C66.875 58.5 64.4844 55.3437 60.9531 54.3125C59.6719 53.9375 57.5156 53.9844 56.25 54.4219ZM61.125 57.0156C62.2969 57.5781 63.2188 58.4844 63.7813 59.6562C64.25 60.5937 64.2969 60.8281 64.2969 62.1094C64.2969 63.3125 64.2344 63.6406 63.875 64.4062C62.0156 68.3906 56.625 68.875 54.1563 65.2656C52.1406 62.3125 53.3438 58.3281 56.6875 56.9219C57.875 56.4219 59.9844 56.4687 61.125 57.0156Z" fill="#912CC6"></path>
</svg>
