<?xml version="1.0" encoding="UTF-8"?>
<svg xmlns="http://www.w3.org/2000/svg" width="68" height="68" viewBox="0 0 68 68" fill="none">
  <path d="M2.70592 0.237767C-0.0804797 1.2414 -0.886025 4.67487 1.18726 6.74816C3.00965 8.57054 6.06016 8.18758 7.3279 5.98223L7.72407 5.30874L14.3269 5.29554H20.9297L19.3451 6.06147C16.5323 7.43486 13.5214 9.46853 13.1384 10.2873C12.729 11.1324 13.3629 12.0833 14.3269 12.0833C14.6438 12.0833 15.0532 11.8588 15.9512 11.1853C19.3979 8.62337 23.5445 6.80098 27.8099 5.95582C28.6022 5.81056 29.3814 5.65209 29.553 5.61247C29.8304 5.55965 29.8436 5.59927 29.8436 6.28596C29.8436 6.89342 29.8964 7.0783 30.2265 7.43486L30.6095 7.87064L33.7128 7.91026L36.8294 7.94988L37.2519 7.56691C37.6349 7.23677 37.6877 7.0783 37.7406 6.3784C37.7934 5.62568 37.8198 5.57286 38.0839 5.62568C38.2292 5.65209 39.0083 5.81056 39.8006 5.95582C44.0661 6.80098 48.2127 8.62337 51.6593 11.1853C52.5573 11.8588 52.9667 12.0833 53.2836 12.0833C54.2476 12.0833 54.8815 11.1324 54.4721 10.2873C54.0892 9.46853 51.0783 7.43486 48.2655 6.06147L46.6808 5.29554H53.2836L59.8865 5.30874L60.2826 5.98223C61.8541 8.7026 65.9347 8.4649 67.2552 5.57286C67.6514 4.72769 67.6514 3.22225 67.2552 2.37709C65.9347 -0.514956 61.8541 -0.752659 60.2826 1.96771L59.8865 2.6412L48.8465 2.6544H37.7934L37.7406 1.7168C37.7009 0.845228 37.6613 0.739582 37.2519 0.383029L36.8294 6.48499e-05L33.7128 0.0396814L30.6095 0.079299L30.2265 0.515086C29.8832 0.89805 29.8436 1.04331 29.8436 1.79604V2.6544H18.7772H7.72407L7.40713 2.06015C6.54877 0.449058 4.42265 -0.369694 2.70592 0.237767ZM4.88485 3.1166C5.34705 3.59201 5.33385 4.37114 4.84524 4.85975C4.0529 5.6653 2.70592 5.11066 2.70592 3.98818C2.70592 2.81287 4.03969 2.27144 4.88485 3.1166ZM35.1258 3.97497V5.29554H33.8053H32.4847V3.97497V2.6544H33.8053H35.1258V3.97497ZM64.5745 3.1166C65.0367 3.59201 65.0235 4.37114 64.5349 4.85975C63.7425 5.6653 62.3955 5.11066 62.3955 3.98818C62.3955 2.81287 63.7293 2.27144 64.5745 3.1166Z" fill="#912CC6"></path>
  <path d="M10.1043 13.338C9.2855 13.6814 9.03459 14.7906 9.65526 15.3981C9.84014 15.583 10.2099 15.7678 10.474 15.8207C10.8966 15.8867 11.0154 15.8339 11.4248 15.4245C12.0455 14.8038 12.0587 14.2888 11.438 13.6681C10.989 13.2192 10.6325 13.1267 10.1043 13.338Z" fill="black"></path>
  <path d="M33.1448 13.4037C32.9071 13.5358 30.9923 16.9297 26.093 25.9095C22.3822 32.684 19.3317 38.3757 19.3053 38.5605C19.2789 38.7718 20.1504 41.2677 21.6427 45.2294C22.9632 48.7025 24.0329 51.621 24.0329 51.7002C24.0329 51.7926 23.8744 51.9511 23.6763 52.0567C23.1217 52.3473 22.3426 53.4433 22.1049 54.2621C21.5899 56.0052 22.3954 57.9597 23.9669 58.7916L24.5611 59.1086V62.8986V66.7018L24.9441 67.1244L25.3271 67.5602L33.7259 67.5998L42.1115 67.6262L42.5473 67.2433L42.983 66.8603L43.0227 62.9646L43.0623 59.0689L43.4584 58.9105C44.0527 58.6596 45.0167 57.6691 45.3072 56.9825C46.0732 55.2789 45.4921 53.0868 44.0395 52.1492C43.7886 51.9775 43.5773 51.7794 43.5773 51.7002C43.5773 51.6077 44.647 48.7025 45.9675 45.2294C47.4598 41.2677 48.3313 38.7718 48.3049 38.5605C48.2785 38.3757 45.228 32.684 41.5172 25.9095C36.2481 16.243 34.7163 13.549 34.439 13.4037C33.99 13.1792 33.5674 13.1792 33.1448 13.4037ZM32.4845 27.3753L32.4713 34.9422L31.7978 35.3384C29.0775 36.9098 29.3152 40.9904 32.2072 42.311C33.0524 42.7071 34.5578 42.7071 35.403 42.311C38.295 40.9904 38.5327 36.9098 35.8124 35.3384L35.1389 34.9422V27.3489C35.1389 20.7989 35.1653 19.7953 35.3237 20.0858C35.4162 20.2707 37.5819 24.2192 40.1306 28.8676L44.7526 37.3192L42.9566 37.3852L41.1739 37.4513L40.7909 37.8871C40.2891 38.4417 40.2891 38.9699 40.7909 39.5246L41.1739 39.9603L43.1019 40C44.1583 40.0264 45.0299 40.0924 45.0299 40.132C45.0299 40.1848 44.0923 42.7203 42.9302 45.7708L40.8437 51.3172H33.8051H26.7665L24.68 45.7708C23.5179 42.7203 22.5803 40.1848 22.5803 40.1188C22.5803 40.066 23.4122 40.0264 24.4291 40.0264H26.2779L26.7004 39.6434C27.2815 39.1284 27.3079 38.3493 26.7665 37.821C26.4099 37.4645 26.3439 37.4513 24.6404 37.3852L22.8576 37.3192L27.638 28.5771C30.266 23.757 32.4317 19.8217 32.4581 19.8217C32.4713 19.8217 32.4845 23.2288 32.4845 27.3753ZM34.7295 37.8474C35.1917 38.3228 35.1785 39.102 34.6899 39.5906C33.8975 40.3961 32.5506 39.8415 32.5506 38.719C32.5506 37.5437 33.8843 37.0023 34.7295 37.8474ZM42.5869 54.4338C42.7717 54.6186 42.9566 54.9884 43.0094 55.2525C43.0755 55.6751 43.0227 55.7939 42.6133 56.2033L42.1511 56.6655L33.7523 56.6391L25.3535 56.5995L25.0233 56.2561C24.8384 56.0713 24.6536 55.7015 24.6007 55.4374C24.5347 55.0148 24.5875 54.896 24.9969 54.4866L25.4591 54.0244L33.8579 54.0508L42.2567 54.0904L42.5869 54.4338ZM40.4079 62.1459V64.9851H33.8051H27.2023V62.1459V59.3066H33.8051H40.4079V62.1459Z" fill="black"></path>
  <path d="M56.5737 13.3507C56.1511 13.5224 55.7285 14.1299 55.7285 14.5524C55.7285 15.0807 56.336 15.7145 56.9302 15.807C57.3396 15.873 57.4849 15.8202 57.8546 15.49C58.2244 15.1599 58.3036 15.0014 58.3036 14.5392C58.3036 14.077 58.2244 13.9186 57.8678 13.6016C57.432 13.2187 57.0755 13.1394 56.5737 13.3507Z" fill="black"></path>
  <path d="M6.97259 17.775C6.57642 17.9995 5.48035 20.0464 4.68801 22.0668C4.10696 23.5723 3.42027 26.0285 3.10333 27.7585L2.87884 29.0394L1.82238 29.0922C0.831957 29.1319 0.752723 29.1583 0.382964 29.5676L0 29.9902V33.0275V36.0648L0.382964 36.4874L0.765929 36.9232L3.89567 36.9628L7.01221 37.0024L7.4612 36.5534L7.9234 36.0913V33.0275V29.9638L7.47441 29.5148C7.06503 29.1055 6.94618 29.0658 6.27269 29.0658C5.62561 29.0658 5.53317 29.0394 5.5992 28.8281C5.63882 28.7093 5.73126 28.2207 5.81049 27.7453C5.99537 26.6228 6.65566 24.2986 7.07824 23.2289C7.26312 22.7799 7.76493 21.6575 8.20072 20.7463C8.92703 19.2012 8.96665 19.0691 8.83459 18.5937C8.74215 18.2504 8.55727 18.0127 8.27995 17.841C7.77814 17.5373 7.4612 17.5241 6.97259 17.775ZM5.28227 33.0275V34.3481H3.9617H2.64113V33.0275V31.707H3.9617H5.28227V33.0275Z" fill="#912CC6"></path>
  <path d="M59.3346 17.8413C59.0573 18.0129 58.8724 18.2506 58.78 18.594C58.6479 19.0694 58.6876 19.2014 59.4139 20.7465C59.8497 21.6577 60.3515 22.7802 60.5363 23.2292C60.9589 24.2988 61.6192 26.623 61.8041 27.7455C61.8833 28.2209 61.9758 28.6963 62.0154 28.8152C62.0682 29.0001 61.9361 29.0397 61.2627 29.0925C60.5496 29.1453 60.3911 29.1981 60.0742 29.5679L59.6912 29.9905V33.0278V36.0651L60.0742 36.4877L60.4571 36.9235L63.5604 36.9631L66.677 37.0027L67.1128 36.6065L67.5486 36.2236V33.0278V29.832L67.1128 29.449C66.7166 29.0925 66.5978 29.0661 65.6998 29.0661H64.7225L64.6433 28.5643C64.1679 25.5402 63.2303 22.5161 61.9361 19.8617C61.2098 18.3695 60.9325 17.9469 60.6288 17.7752C60.1138 17.5111 59.8497 17.5243 59.3346 17.8413ZM64.9735 33.0278V34.3483H63.6529H62.3323V33.0278V31.7072H63.6529H64.9735V33.0278Z" fill="#912CC6"></path>
</svg>
