<?xml version="1.0" encoding="UTF-8"?>
<svg xmlns="http://www.w3.org/2000/svg" width="77" height="76" viewBox="0 0 77 76" fill="none">
  <path d="M70.0977 0.180756C69 0.523499 68.5426 0.91095 64.8076 4.56187L61.164 8.13828L59.6242 7.36339C57.9015 6.49908 55.7519 5.7689 53.77 5.38145C51.6967 4.97911 47.5957 5.02382 45.5223 5.47086C43.7081 5.85831 41.6653 6.52889 40.5524 7.11006L39.7901 7.49751L21.2671 7.57201C3.8418 7.64651 2.71365 7.66142 2.19532 7.91475C1.47879 8.27239 0.747017 8.97277 0.335396 9.71786L0 10.3288V35.0657V59.8025L0.335396 60.3986C0.716527 61.0989 1.46354 61.8142 2.21056 62.2017C2.71365 62.4699 3.3692 62.4848 14.361 62.5295L25.9932 62.5593L24.6973 65.0926L23.4015 67.6259H20.7793C17.7607 67.6259 17.2881 67.76 16.2667 68.8925C15.5959 69.6376 15.3215 70.3827 15.3215 71.4556C15.3215 72.9309 16.5868 74.5403 18.0656 74.9277C18.462 75.032 23.9198 75.0618 34.7897 75.0469L50.9191 75.0022L51.5442 74.6744C52.276 74.287 53.084 73.4376 53.3889 72.7223C53.6938 71.9921 53.6633 70.6062 53.3126 69.8313C52.962 69.0266 52.1845 68.2667 51.3765 67.909C50.8582 67.6706 50.3551 67.6259 48.1445 67.6259H45.5071L44.2112 65.0926L42.9154 62.5593H54.3798H65.8595L66.6217 62.2017C67.5212 61.7993 68.2225 61.1585 68.6189 60.3688C68.8933 59.8323 68.9085 59.2064 68.9848 47.9556L69.061 36.1088L69.4574 35.3637C70.0519 34.261 70.7685 32.2045 71.1496 30.4759C71.5917 28.4493 71.6222 24.4109 71.2258 22.429C70.8294 20.5067 70.1434 18.5844 69.2287 16.7962L68.4207 15.2017L72.1405 11.5806C76.5617 7.24417 76.6836 7.08025 76.6836 4.8897C76.6836 3.65286 76.6379 3.38463 76.272 2.72896C75.7537 1.77525 74.8999 0.94075 73.9395 0.448997C73.0095 -0.0129623 71.1191 -0.147079 70.0977 0.180756ZM72.8113 2.99718C73.9242 3.72737 74.3663 5.15793 73.8023 6.20105C73.6803 6.42458 72.0643 8.07867 70.2349 9.86687L66.8809 13.1303L66.3778 12.5492C65.7223 11.8041 64.6551 10.761 63.8928 10.1202L63.2983 9.62845L66.5608 6.42458C68.3597 4.66617 70.0367 3.08659 70.2806 2.93758C70.9362 2.53523 72.1405 2.55013 72.8113 2.99718ZM52.9315 7.79553C55.5994 8.21278 58.2216 9.241 60.6304 10.8057C62.0634 11.7147 64.7466 14.3374 65.6765 15.7232C69.0153 20.6557 69.8842 26.5419 68.0701 32.0555C66.2559 37.5989 61.5756 42.2185 55.9043 44.0812C51.1631 45.631 45.7358 45.2435 41.2384 43.0381C35.7806 40.3409 32.0913 35.5127 30.9479 29.5371C30.6125 27.8532 30.6125 24.7835 30.9479 22.9953C32.2437 15.9319 37.5338 10.2394 44.6686 8.24258C45.4309 8.03396 46.4523 7.81043 46.9554 7.73593C48.4342 7.52731 51.4222 7.55711 52.9315 7.79553ZM34.1951 11.5806C31.8778 13.935 30.2161 16.5875 29.2099 19.5679C28.4934 21.6839 28.2647 22.9804 28.1732 25.4243C28.0818 27.9575 28.2495 29.6265 28.8135 31.6979L29.1642 32.9794L28.8135 33.352C28.1275 34.0821 28.1275 34.0821 28.1275 40.9369V47.5086H26.8316H25.5358V36.0641V24.6196L25.2004 23.9639C24.5601 22.7419 23.4167 22.3545 20.9622 22.5184C19.5901 22.6078 18.8126 22.9208 18.3248 23.5764L17.9894 24.0384L17.9437 35.766L17.9132 47.5086H16.6173H15.3215V31.221C15.3215 19.8659 15.2757 14.7695 15.1538 14.3523C14.9403 13.6072 14.1781 12.8621 13.4158 12.6535C13.0804 12.5641 12.1962 12.4896 11.4339 12.4896C10.6869 12.4896 9.78745 12.5641 9.45206 12.6535C8.68979 12.8621 7.92753 13.6072 7.7141 14.3523C7.59214 14.7695 7.5464 19.8659 7.5464 31.221V47.5086H6.86036C6.08286 47.5086 5.35108 47.8066 5.19863 48.1792C5.00044 48.7007 5.10716 49.3117 5.48829 49.6693L5.85418 50.0419H21.7092H37.5491L37.9607 49.565C38.2808 49.1925 38.3418 48.9988 38.2808 48.6411C38.1284 47.896 37.7168 47.6129 36.6648 47.5384L35.7501 47.4788V45.0349C35.7501 43.6937 35.7806 42.591 35.8111 42.591C35.8568 42.591 36.3447 42.9338 36.8935 43.3361C39.7596 45.4521 43.2355 46.838 47.0164 47.3745C48.9678 47.6427 52.6571 47.4639 54.7 47.0019C56.7581 46.5251 58.9991 45.6608 60.8133 44.6177C62.4903 43.649 63.6184 42.7996 65.2192 41.2648L66.3931 40.1322V46.3612V52.5752H39.348H12.3182L11.9065 52.8881C11.5102 53.201 11.373 53.8567 11.6016 54.4379C11.8761 55.1383 10.7479 55.1085 39.4852 55.1085H66.3931V57.1947C66.3931 59.2213 66.3778 59.3107 66.0119 59.6535L65.6461 60.026H34.4848H3.33871L2.92709 59.6088C2.51547 59.1915 2.51547 59.1617 2.51547 57.1649V55.1234L5.33584 55.0787C7.91229 55.0339 8.17146 55.0041 8.46111 54.7359C8.62881 54.572 8.79651 54.2293 8.85749 53.961C8.93372 53.5587 8.87274 53.4097 8.49161 53.0222L8.03425 52.5752H5.27486H2.51547V31.7128V10.8355L2.8966 10.4778L3.26248 10.1053H19.4529H35.6282L34.1951 11.5806ZM12.7298 31.2657V47.5086H11.4339H10.1381V31.2657V15.0229H11.4339H12.7298V31.2657ZM22.9441 36.2578V47.5086H21.6483H20.3524V36.2578V25.007H21.6483H22.9441V36.2578ZM31.4205 37.5542C31.8016 38.1503 32.3657 38.9252 32.6401 39.2977L33.1584 39.9534V43.7235V47.5086H31.8626H30.5667V41.9949C30.5667 38.955 30.5972 36.4813 30.643 36.4813C30.6734 36.4813 31.0241 36.9582 31.4205 37.5542ZM41.3604 65.0181C42.0464 66.3741 42.6105 67.5067 42.6105 67.5514C42.6105 67.5961 38.9364 67.6259 34.4543 67.6259H26.2981L27.5939 65.0926L28.8898 62.5593H34.5H40.095L41.3604 65.0181ZM50.3093 70.2337C50.8124 70.4274 51.1478 70.9192 51.1478 71.4258C51.1478 71.5301 50.9649 71.8282 50.7514 72.0815L50.3551 72.5435H34.5305C18.7669 72.5435 18.7212 72.5435 18.3095 72.2305C17.9132 71.9176 17.776 71.2619 18.0046 70.6807C18.2638 70.0251 18.2181 70.0251 34.4238 70.0102C47.5195 70.0102 49.8672 70.04 50.3093 70.2337Z" fill="black"></path>
  <path d="M46.6653 10.3446C41.4209 11.3579 36.8321 14.9045 34.6673 19.5985C30.5206 28.6141 35.521 39.1496 45.2475 41.9064C52.8092 44.0523 60.8891 40.6547 64.5327 33.8297C65.9963 31.0729 66.4841 28.8674 66.3469 25.5592C66.1792 21.1632 64.67 17.8997 61.377 14.7257C58.953 12.3861 56.4528 11.0599 53.2208 10.4042C51.559 10.0615 48.2813 10.0167 46.6653 10.3446ZM53.3427 12.9971C57.3065 13.9955 60.5995 16.6331 62.4289 20.2989C63.4503 22.3405 63.8467 23.9945 63.8467 26.2745C63.8467 29.0611 63.1302 31.4752 61.6362 33.7403C60.9501 34.7834 59.1512 36.7802 58.9073 36.7802C58.831 36.7802 58.7548 33.3677 58.7396 29.2101L58.6938 21.6252L58.2517 21.0738C57.5962 20.2393 57.1083 20.0903 54.8368 20.0903C52.6719 20.0903 52.2603 20.2244 51.5438 21.1781C51.2236 21.5954 51.2236 21.7593 51.1474 30.7897L51.0712 39.9841L49.8211 40.0288L48.5557 40.0735V34.2171C48.5557 27.6604 48.5252 27.5263 47.4733 26.7812C47.0007 26.4533 46.7873 26.4235 44.8206 26.3788C42.793 26.3341 42.6558 26.349 42.1527 26.6769C41.8631 26.8706 41.4667 27.258 41.2837 27.5263C40.9331 28.018 40.9331 28.1074 40.9331 32.3991C40.9331 34.8281 40.8721 36.7802 40.7959 36.7802C40.5977 36.7802 38.7683 34.843 38.189 34.0234C37.4724 33.0101 36.5577 31.0133 36.1766 29.6721C35.704 27.9584 35.704 24.68 36.1766 22.9216C37.1523 19.3899 39.4543 16.3649 42.5948 14.5171C44.0126 13.6826 46.3452 12.863 47.8697 12.6543C49.3942 12.4457 51.6962 12.5947 53.3427 12.9971ZM56.1479 30.5513L56.1021 38.6429L55.2636 38.9559C54.8063 39.1347 54.2727 39.3284 54.0898 39.388L53.7391 39.4774V30.9835V22.4746H54.9587H56.1784L56.1479 30.5513ZM45.964 34.0979C45.964 37.8084 45.9183 39.4625 45.7963 39.4625C45.7049 39.4625 45.1255 39.2539 44.5005 39.0006L43.3723 38.5386V33.7403C43.3723 31.0878 43.4181 28.8823 43.4791 28.8376C43.5248 28.778 44.1194 28.7333 44.7749 28.7333H45.964V34.0979Z" fill="#912CC6"></path>
</svg>
