<?xml version="1.0" encoding="UTF-8"?>
<svg xmlns="http://www.w3.org/2000/svg" width="75" height="75" viewBox="0 0 75 75" fill="none">
  <g clip-path="url(#clip0_2383_7254)">
    <path d="M15.1612 0.322266C14.6045 0.483398 14.1065 0.644531 14.0772 0.673828C14.0186 0.732422 16.4063 10.166 16.5528 10.4004C16.626 10.5176 16.919 10.4883 17.666 10.3125C18.2227 10.1807 18.7354 10.0195 18.794 9.96094C18.8965 9.87305 17.0069 2.05078 16.4649 0.249023C16.377 -0.0439453 16.4502 -0.0585938 15.1612 0.322266Z" fill="#912CC6"></path>
    <path d="M52.0312 0.527275C51.5186 0.878838 51.4307 1.15716 51.0498 3.80853C50.8447 5.18548 50.6104 6.44524 50.5371 6.60638C50.2734 7.08978 49.7168 7.35345 49.2188 7.25091C48.8379 7.16302 48.457 6.73821 47.0801 4.90716C45.3076 2.53411 44.9121 2.21185 44.1943 2.47552C43.9746 2.56341 42.9639 3.26653 41.9385 4.0429L40.0635 5.44915L38.7305 5.36126C34.8633 5.12688 30.6445 6.03509 26.9971 7.88079C24.668 9.05267 22.8809 10.3564 21.0205 12.2314C17.1387 16.1132 14.8682 20.7861 14.1797 26.2353C14.0186 27.6122 13.9893 27.6855 13.6523 27.6855C13.4619 27.6855 13.125 27.8613 12.9053 28.081C12.5684 28.4325 12.4365 28.8134 12.085 30.5712C11.8506 31.7284 11.6016 32.6659 11.5283 32.6659C11.4697 32.6659 10.6494 32.124 9.69727 31.4648C7.23633 29.7363 7.42676 29.6923 4.6875 32.4609C2.82715 34.3212 2.49023 34.7314 2.49023 35.0976C2.49023 35.4198 2.85645 36.0644 3.73535 37.3681C4.42383 38.3642 4.98047 39.2138 4.98047 39.2577C4.98047 39.3017 4.04297 39.5361 2.90039 39.7704C1.12793 40.122 0.74707 40.2538 0.410156 40.5907L0 40.9863V43.872V46.7577L0.410156 47.1532C0.74707 47.4902 1.12793 47.622 2.85645 47.9736C3.98438 48.2079 4.93652 48.413 4.96582 48.4423C5.00977 48.4716 4.45312 49.3505 3.75 50.3906C2.59277 52.0898 2.46094 52.3241 2.54883 52.7636C2.62207 53.1445 3.12012 53.7304 4.73145 55.3417C7.44141 58.0517 7.23633 58.0077 9.65332 56.3378C10.6641 55.6493 11.5137 55.0781 11.5723 55.0781C11.6162 55.0781 11.8506 56.0156 12.085 57.1581C12.4365 58.9306 12.5684 59.3114 12.9053 59.6484L13.3008 60.0585H16.1865H19.0723L19.4678 59.6484C19.8047 59.3114 19.9365 58.9306 20.2881 57.1581C20.5225 56.0156 20.7568 55.0781 20.8008 55.0781C20.8594 55.0781 21.709 55.6493 22.7197 56.3378C24.9902 57.9052 25.0635 57.9052 26.6016 56.3818L27.6562 55.3417L27.7148 57.6562C27.7588 59.6484 27.8174 60.0878 28.0811 60.6738C28.4912 61.582 29.0479 62.2851 29.6631 62.7099L30.1611 63.0468L30.2051 67.0898L30.249 71.1181L30.6592 71.997C31.1865 73.1396 32.0508 74.0038 33.1641 74.5165C34.043 74.912 34.1162 74.9267 37.1338 74.9706C40.4736 75.0292 41.6016 74.8974 42.5537 74.3407C43.4326 73.828 44.2383 72.9638 44.6631 72.0702C45.0439 71.2646 45.0439 71.2353 45.0879 67.163L45.1465 63.0614L45.7178 62.6513C46.04 62.4316 46.4941 61.9335 46.7432 61.5527C47.5049 60.3515 47.6074 59.7363 47.6074 56.3964C47.6074 51.5478 48.0469 50.537 51.0352 48.413C52.998 47.0214 53.3789 46.6698 53.2324 46.4062C53.1592 46.289 52.8076 45.8495 52.4268 45.454L51.7676 44.707L51.2549 45.1318C50.9912 45.3661 50.1416 45.996 49.3945 46.538C47.2559 48.0614 46.2012 49.4091 45.5273 51.4159C45.249 52.2509 45.2051 52.8222 45.1318 56.0448L45.0439 59.7216L44.6338 60.2489C43.8574 61.2597 44.0186 61.245 37.5293 61.2011L31.7139 61.1572L31.2305 60.8202C30.3076 60.1464 30.2637 59.9413 30.1611 55.8105C30.0732 51.621 29.9561 51.079 28.8721 49.4091C28.1543 48.3105 27.4805 47.6513 25.7812 46.4355C23.9648 45.1318 23.0273 44.3261 21.7969 42.9638C19.2334 40.1366 17.4609 36.5038 16.6846 32.4462C16.377 30.8788 16.4209 26.4697 16.7578 24.9023C18.1055 18.6034 21.8115 13.4911 27.1875 10.5175C30 8.96478 32.8857 8.10052 36.2256 7.83685C37.3096 7.74895 37.3535 7.7636 37.3535 8.05657C37.3535 8.49603 37.5 8.74505 39.1992 11.0156C40.7666 13.1249 40.9863 13.6376 40.5322 14.2236C40.0781 14.8095 39.8291 14.8242 36.9873 14.414C33.999 13.9892 33.5889 14.0185 33.2666 14.7656C33.0029 15.3368 32.0068 22.5585 32.124 23.0273C32.2998 23.6865 32.7832 23.8769 35.376 24.2577C36.709 24.4482 37.9688 24.6532 38.1738 24.6972C38.9209 24.8876 39.2139 25.9716 38.7012 26.6015C38.5693 26.7773 37.5146 27.6122 36.3867 28.4618C34.3066 30.0146 34.1309 30.205 34.1309 30.8349C34.1309 31.2304 38.7598 37.5292 39.2432 37.7782C39.873 38.1152 40.2539 37.954 42.4365 36.3281C43.623 35.4345 44.751 34.6728 44.9268 34.6288C45.4102 34.497 46.04 34.7607 46.2891 35.1855C46.4795 35.537 46.4648 35.8447 46.1572 38.0419C45.9814 39.3896 45.8496 40.7665 45.8789 41.0741C45.9521 42.0409 46.2305 42.1435 50.1123 42.7001C54.1846 43.3007 54.8145 43.33 55.2246 42.9198C55.5762 42.5683 55.5908 42.5243 56.0303 39.4775C56.3525 37.1923 56.4111 36.9579 56.7627 36.6503C57.1436 36.3281 57.6123 36.2402 58.0811 36.4159C58.2129 36.4745 59.0186 37.4413 59.8682 38.5839C60.7178 39.7118 61.5381 40.7665 61.6992 40.8984C62.3877 41.499 62.7686 41.3232 66.2109 38.745C69.4629 36.2988 69.8438 35.9179 69.668 35.2294C69.624 35.0536 68.877 33.9697 67.998 32.7978C67.1191 31.6259 66.3574 30.5419 66.2988 30.3661C66.167 29.9413 66.416 29.3554 66.8701 29.0624C67.2363 28.8281 67.3975 28.8281 70.0195 29.1943C72.8613 29.5898 73.2568 29.5898 73.667 29.0917C73.8428 28.8866 74.9854 21.7675 75 20.8447C75 20.6689 74.8535 20.3466 74.6777 20.1415C74.3701 19.79 74.1211 19.7314 71.499 19.3505C69.7559 19.0868 68.5986 18.8525 68.4668 18.7206C68.1299 18.3837 67.9834 17.6513 68.1738 17.2704C68.2617 17.08 69.2285 16.245 70.3125 15.4247C72.5098 13.7548 72.9492 13.33 72.9492 12.8173C72.9492 12.5829 72.1582 11.3964 70.7373 9.49212C67.9395 5.74212 67.9102 5.71282 67.2217 5.71282C66.7529 5.71282 66.3574 5.9472 64.4971 7.32415C63.3105 8.2177 62.1826 8.97942 62.0068 9.02337C61.5088 9.1552 60.8789 8.77435 60.7031 8.23235C60.5859 7.85149 60.6299 7.23626 60.8936 5.44915C61.3037 2.56341 61.3037 2.29974 60.9082 1.83099C60.5859 1.46478 60.3662 1.42083 56.6162 0.878838C54.4482 0.556572 52.5879 0.2929 52.5146 0.2929C52.4268 0.2929 52.207 0.395439 52.0312 0.527275ZM58.5498 3.72063C58.5938 3.74993 58.5059 4.5263 58.374 5.44915C58.0225 7.80755 58.0518 8.58392 58.5059 9.47747C59.3994 11.2646 61.626 12.0409 63.3545 11.1767C63.5889 11.0449 64.5117 10.4296 65.376 9.77044C66.2402 9.12591 66.9727 8.62786 67.002 8.65716C67.5879 9.40423 69.7559 12.3486 69.7998 12.495C69.8438 12.5976 69.2578 13.1249 68.4668 13.6962C66.1523 15.3808 65.5957 16.1865 65.5957 17.7978C65.5811 19.2919 66.46 20.6103 67.793 21.1816C68.0859 21.2988 69.2139 21.5331 70.2979 21.6943C71.3818 21.8407 72.29 22.0019 72.3193 22.0165C72.334 22.0458 72.1875 23.1152 71.9971 24.3896C71.792 25.6786 71.6309 26.7773 71.6309 26.8212C71.6309 26.8652 70.7959 26.7773 69.7705 26.6308C68.7305 26.4697 67.5586 26.3818 67.1484 26.4111C64.9365 26.6308 63.4277 28.6816 63.8672 30.8642C63.999 31.5087 64.292 31.9921 65.3467 33.413C66.0645 34.3652 66.6504 35.1855 66.6504 35.2148C66.6504 35.2441 65.7715 35.9325 64.6875 36.7382L62.7246 38.2177L61.4209 36.5038C59.751 34.3066 59.1797 33.9111 57.583 33.9111C56.25 33.9257 55.5322 34.2333 54.7266 35.1855C54.0967 35.9179 53.8477 36.7089 53.5986 38.7743C53.4961 39.5947 53.3789 40.3417 53.3203 40.4443C53.2324 40.5615 52.6172 40.5322 50.8447 40.2831C48.1201 39.8876 48.3691 40.1513 48.7061 37.9394C49.0283 35.8007 48.999 35.039 48.5156 34.1161C47.7832 32.7245 46.4062 31.9628 44.8828 32.124C43.916 32.2265 43.4912 32.4462 41.6309 33.8525L40.0928 35.0097L38.6572 33.0761C37.8516 32.0214 37.207 31.0986 37.207 31.0546C37.207 30.996 37.9248 30.3954 38.8184 29.7363C39.6973 29.0624 40.5908 28.2714 40.7959 27.9784C42.0264 26.1913 41.499 23.7157 39.6387 22.6318C39.1553 22.3534 38.4961 22.1923 36.8994 21.9433C35.7422 21.7822 34.7754 21.621 34.7461 21.6064C34.6729 21.5478 35.332 16.9335 35.4346 16.8163C35.4785 16.7577 36.416 16.8456 37.5 17.0068C40.1367 17.3876 41.0596 17.2118 42.1729 16.0986C42.8467 15.4247 43.0957 14.8388 43.1836 13.7548C43.2715 12.5097 43.0078 11.9238 41.5283 9.96087C40.9131 9.1552 40.4297 8.42278 40.459 8.34954C40.5029 8.23235 44.165 5.41985 44.2969 5.41985C44.3262 5.41985 44.9121 6.18157 45.6152 7.10442C46.3037 8.02728 47.124 8.95013 47.4316 9.14056C48.9844 10.1513 50.8154 9.93157 52.1777 8.56927C52.8369 7.89544 53.0859 7.19231 53.3936 4.9804C53.5254 4.05755 53.6572 3.22259 53.6865 3.1347C53.7158 3.01751 54.4629 3.0761 56.1182 3.32513C57.4219 3.51556 58.5205 3.69134 58.5498 3.72063ZM15 35.581C15.1318 36.0204 15.2344 36.4013 15.2344 36.4159C15.2344 36.4306 14.8828 36.5331 14.4727 36.621C11.4697 37.3241 9.06738 40.0634 8.71582 43.1689C8.4082 45.7909 9.8877 48.7939 12.1289 50.1562C15.6738 52.3095 20.0537 51.3866 22.3389 48.0029L22.8076 47.2997L23.2324 47.6513C23.4668 47.8271 24.0967 48.2958 24.624 48.6767C25.7812 49.4823 26.6602 50.4491 27.0996 51.372L27.4219 52.0458L26.0889 53.3788L24.7705 54.6972L23.291 53.7011C22.4707 53.1445 21.5625 52.6318 21.2549 52.5585C20.2295 52.2948 19.0723 52.8515 18.5449 53.8769C18.4424 54.0966 18.1934 55.0195 18.0029 55.913L17.666 57.5683H16.1719H14.6924L14.4434 56.3232C13.916 53.6572 13.4766 52.9394 12.1582 52.5878C11.3086 52.3534 10.7373 52.5732 9.05273 53.7157L7.60254 54.6972L6.48926 53.5693L5.36133 52.456L6.35742 50.9911C6.89941 50.1855 7.41211 49.2773 7.4707 48.9697C7.76367 47.7392 6.97266 46.4501 5.69824 46.0839C5.30273 45.9667 4.40918 45.747 3.73535 45.6152L2.49023 45.3661V43.872V42.3779L4.13086 42.0409C5.03906 41.8652 5.96191 41.6308 6.16699 41.5136C7.11914 41.0302 7.70508 39.7851 7.48535 38.8036C7.41211 38.5107 6.92871 37.6171 6.38672 36.8407C5.85938 36.0644 5.41992 35.3759 5.41992 35.3173C5.41992 35.2734 5.91797 34.7314 6.51855 34.1308L7.60254 33.0468L9.14062 34.1015C10.8105 35.2294 11.3525 35.4198 12.2461 35.1708C13.2275 34.9072 13.9014 34.0868 14.1357 32.8857C14.2529 32.2997 14.2529 32.3144 14.502 33.5448C14.6484 34.2333 14.8682 35.1415 15 35.581ZM16.6406 39.7265C17.4902 41.4111 18.4424 42.788 20.0537 44.663L20.8594 45.5859L20.5078 46.245C20.0391 47.1386 18.8965 48.12 17.9004 48.4863C17.2266 48.7499 16.8457 48.7939 15.8936 48.7499C13.9307 48.6474 12.5537 47.6952 11.6895 45.8788C11.2793 45.0146 11.25 44.8681 11.3086 43.6816C11.3525 42.7734 11.4697 42.2167 11.7041 41.7333C12.4365 40.1952 14.1504 39.0087 15.7031 38.9794C16.2305 38.9648 16.2744 39.0087 16.6406 39.7265ZM42.627 64.9657V66.2109H37.6465H32.666V65.0683C32.666 64.4384 32.71 63.8671 32.7686 63.8232C32.8125 63.7646 35.0537 63.7206 37.749 63.7206H42.627V64.9657ZM42.627 69.6093C42.627 70.7372 42.2461 71.5722 41.499 72.0702C40.9717 72.4364 40.8984 72.4364 37.8076 72.4804C34.248 72.5243 34.0137 72.4657 33.208 71.4697C32.8857 71.0595 32.7686 70.7226 32.71 70.0488C32.5781 68.5839 32.1387 68.7011 37.7197 68.7011H42.627V69.6093Z" fill="black"></path>
    <path d="M51.4746 12.0849C48.4424 12.7441 45.9521 14.707 44.6191 17.4609C43.8428 19.0869 43.6084 20.1269 43.6084 21.8994C43.623 24.5654 44.5898 26.8652 46.5088 28.7988C47.5049 29.7949 47.9297 30.1025 49.0869 30.6591C50.8887 31.5234 51.7383 31.7138 53.6865 31.6992C54.9902 31.6845 55.5176 31.6113 56.4697 31.3037C59.1943 30.4101 61.2305 28.623 62.4902 26.0156C64.3506 22.1631 63.3691 17.3291 60.1611 14.4287C59.0625 13.4326 57.0264 12.3779 55.5908 12.0849C54.3311 11.8213 52.6758 11.8213 51.4746 12.0849ZM55.2686 14.5752C57.9199 15.2636 60.0293 17.3584 60.7324 19.9951C61.3916 22.4121 60.6006 25.1953 58.7256 27.0703C55.7959 30 51.2109 29.9707 48.252 27.0263C45.3076 24.082 45.3369 19.4824 48.3105 16.5673C50.2441 14.6777 52.8223 13.9306 55.2686 14.5752Z" fill="#912CC6"></path>
    <path d="M4.01368 7.83679C3.64747 8.36413 3.3545 8.81823 3.3838 8.84753C3.91114 9.25769 11.8213 14.8387 11.9385 14.8827C12.085 14.9413 13.5645 13.0663 13.4473 12.9637C13.1104 12.6708 4.90723 6.88464 4.81934 6.88464C4.76075 6.88464 4.39454 7.30945 4.01368 7.83679Z" fill="#912CC6"></path>
    <path d="M27.4219 14.8681C23.9356 17.4169 21.46 21.2548 20.5957 25.4882C19.2334 32.1972 21.9873 39.1259 27.6123 43.1396C28.2569 43.6083 29.7803 44.4579 30.9815 45.0439C33.003 46.0253 33.2666 46.2011 34.1602 47.1386C35.2735 48.3251 35.9766 49.6581 36.211 51.0204C36.4893 52.7636 36.3281 52.5878 37.6905 52.5878H38.9063L38.8037 51.5917C38.6573 50.2441 38.5401 49.746 38.086 48.6327C37.5733 47.3583 36.7969 46.2011 35.7715 45.205C34.6436 44.1064 34.1162 43.7548 32.0948 42.8027C29.8975 41.7773 28.6963 40.9863 27.3487 39.6972C24.8731 37.3534 23.2471 34.0722 22.8369 30.6152C22.251 25.4589 24.5069 20.1415 28.6084 17.0947C29.1504 16.6992 29.5899 16.3183 29.5899 16.245C29.5899 16.1425 28.418 14.2089 28.3594 14.2089C28.3448 14.2089 27.9199 14.5019 27.4219 14.8681Z" fill="#912CC6"></path>
    <path d="M6.19632 20.2587C3.60354 20.9179 1.45022 21.5039 1.39163 21.5478C1.30374 21.6504 1.74319 23.5839 1.90433 23.7744C1.97757 23.8623 10.7227 21.7968 11.6748 21.4599C11.8946 21.3867 11.3086 19.0429 11.0742 19.0576C10.9864 19.0576 8.78909 19.6142 6.19632 20.2587Z" fill="#912CC6"></path>
    <path d="M61.377 47.6807V48.9258H65.6982H70.0195V47.6807V46.4355H65.6982H61.377V47.6807Z" fill="#912CC6"></path>
    <path d="M60.0586 53.8477C59.6338 54.375 59.3408 54.8584 59.4141 54.917C59.4873 54.9756 61.1572 56.3672 63.1201 58.0078L66.709 60.9814L67.4854 60.1172C67.9102 59.6484 68.2617 59.209 68.2617 59.1504C68.2617 59.0625 62.3877 54.0967 61.0693 53.0713C60.8789 52.9102 60.7178 53.0273 60.0586 53.8477Z" fill="#912CC6"></path>
    <path d="M36.4746 56.9092V58.7402H37.7197H38.9648V56.9092V55.0781H37.7197H36.4746V56.9092Z" fill="#912CC6"></path>
    <path d="M53.9062 60.6445V65.0391H55.1514H56.3965L56.3672 60.6738L56.3232 56.3232L55.1221 56.2793L53.9062 56.2354V60.6445Z" fill="#912CC6"></path>
  </g>
  <defs>
    <clipPath id="clip0_2383_7254">
      <rect width="75" height="75" fill="white"></rect>
    </clipPath>
  </defs>
</svg>
